<?xml version="1.0" standalone="no"?>
<!DOCTYPE svg PUBLIC "-//W3C//DTD SVG 20010904//EN"
 "http://www.w3.org/TR/2001/REC-SVG-20010904/DTD/svg10.dtd">
<svg version="1.0" xmlns="http://www.w3.org/2000/svg"
 width="800.000000pt" height="800.000000pt" viewBox="0 0 800.000000 800.000000"
 preserveAspectRatio="xMidYMid meet">
<metadata>
Created by potrace 1.14, written by Peter Selinger 2001-2017
</metadata>
<g transform="translate(0.000000,800.000000) scale(0.100000,-0.100000)"
fill="#000000" stroke="none">
<path d="M1575 7442 c5 -12 3 -13 -10 -2 -13 11 -16 11 -13 -1 2 -8 8 -18 13
-22 6 -4 -5 -7 -24 -5 -24 2 -36 -2 -38 -12 -4 -12 -3 -12 5 -2 7 11 10 11 15
-3 4 -9 3 -13 -2 -10 -5 3 -12 1 -16 -5 -3 -5 -11 -10 -16 -10 -6 0 -7 5 -3
12 5 7 3 8 -5 3 -7 -4 -10 -16 -8 -27 5 -16 3 -17 -11 -6 -13 11 -15 11 -10
-3 6 -15 -1 -19 -44 -20 -10 0 -21 -5 -24 -11 -4 -7 -2 -8 4 -4 7 4 12 2 12
-3 0 -6 -5 -11 -11 -11 -5 0 -8 -4 -4 -9 3 -5 1 -12 -5 -16 -5 -3 -10 -1 -10
5 0 6 -5 8 -10 5 -6 -4 -8 -10 -5 -15 3 -5 1 -11 -5 -15 -6 -4 -7 -12 -3 -18
4 -7 0 -7 -10 1 -18 16 -41 7 -33 -13 7 -19 -4 -26 -25 -14 -11 5 -19 6 -18 2
1 -4 0 -11 -1 -15 -1 -5 -3 -13 -4 -20 0 -6 -8 -13 -16 -15 -13 -4 -13 -3 0 6
13 9 13 11 -2 11 -10 0 -18 -5 -18 -11 0 -5 -4 -8 -9 -4 -5 3 -13 0 -17 -6 -4
-7 -3 -9 4 -5 6 3 13 2 16 -3 7 -11 -13 -9 -34 3 -8 5 -12 6 -8 1 4 -4 3 -14
-4 -22 -9 -11 -7 -12 7 -7 13 5 16 4 11 -4 -4 -7 -17 -12 -30 -12 -13 0 -26
-9 -32 -22 -6 -13 -9 -16 -7 -8 2 11 0 11 -10 -2 -8 -10 -16 -16 -18 -13 -3 2
-5 -5 -5 -15 0 -11 4 -20 8 -20 4 0 8 -5 8 -11 0 -5 -4 -7 -10 -4 -6 3 -7 -1
-4 -10 4 -10 14 -15 25 -12 17 5 24 -4 20 -26 -1 -5 4 -5 10 -1 9 5 10 2 6 -9
-5 -13 -2 -15 17 -7 17 6 23 5 23 -6 0 -8 -5 -14 -10 -14 -6 0 -7 -3 -4 -6 4
-4 13 -1 22 6 12 10 15 10 15 -3 0 -21 27 -42 33 -25 4 11 6 10 6 0 1 -7 6
-10 11 -7 14 9 12 -8 -2 -24 -9 -10 -9 -12 -1 -7 6 3 15 2 18 -4 4 -7 12 -7
18 -2 13 9 59 -32 48 -44 -3 -4 5 -1 19 6 14 7 22 9 18 5 -8 -9 16 -35 32 -35
6 0 8 -4 5 -10 -3 -5 -1 -10 5 -10 6 0 8 -5 4 -12 -4 -7 -3 -8 5 -4 6 4 9 12
5 17 -3 6 3 5 14 -2 11 -7 18 -19 15 -26 -4 -9 0 -11 11 -7 9 3 16 1 16 -5 0
-6 7 -8 15 -4 12 4 15 0 11 -19 -2 -16 1 -25 9 -25 7 0 11 6 9 12 -3 6 2 12
10 12 8 0 14 -3 13 -6 -3 -14 15 -51 23 -46 5 3 11 1 15 -5 4 -6 11 -8 16 -5
11 8 41 -20 31 -29 -3 -4 2 -4 12 0 14 5 17 4 11 -5 -5 -10 -2 -11 12 -7 12 4
25 1 33 -9 7 -8 16 -13 20 -10 5 3 6 -5 3 -17 -4 -19 -3 -20 6 -8 8 12 11 12
11 1 0 -10 3 -11 13 -2 14 11 27 5 27 -13 0 -6 -4 -5 -9 3 -6 9 -8 4 -8 -15 0
-16 2 -23 4 -16 3 6 11 12 19 12 9 0 13 -4 10 -9 -3 -4 11 -7 31 -5 23 2 32
-1 24 -6 -9 -5 -11 -15 -7 -26 6 -16 8 -16 16 -4 7 10 10 11 10 3 0 -7 12 -13
28 -13 21 0 24 -2 12 -10 -11 -7 -11 -10 -2 -10 15 0 31 39 24 59 -3 9 -1 12
6 7 6 -3 14 -2 17 4 4 6 3 10 -2 9 -23 -4 -28 4 -26 41 1 22 5 45 9 52 4 7 3
8 -4 4 -7 -4 -12 -14 -12 -22 0 -22 -20 -17 -21 6 -1 11 -2 28 -2 38 -1 9 -8
23 -17 30 -8 8 -9 11 -2 7 14 -7 17 11 2 20 -5 3 -10 12 -10 18 0 7 4 6 10 -3
6 -9 10 -10 10 -3 0 6 -5 15 -10 18 -8 5 -7 12 2 23 12 15 11 16 -4 3 -10 -7
-16 -17 -13 -21 3 -5 0 -12 -6 -16 -7 -4 -9 -3 -6 2 3 6 2 16 -3 24 -5 8 -4
22 2 33 6 12 6 17 0 13 -14 -8 -12 47 2 57 6 4 -1 5 -15 1 -17 -3 -30 -1 -35
7 -5 9 -2 11 9 6 9 -3 21 1 29 11 7 8 8 13 3 10 -6 -4 -18 0 -28 7 -12 9 -15
15 -7 20 8 5 5 12 -7 22 -10 8 -13 12 -7 9 9 -4 12 44 4 64 -1 3 -2 8 -1 13 0
4 -2 6 -6 6 -23 -4 -34 3 -31 19 2 9 -3 23 -12 30 -13 11 -13 11 3 6 13 -5 16
-2 11 10 -6 15 -17 20 -37 17 -4 -1 -2 8 5 19 7 11 16 20 21 20 4 0 5 5 2 10
-4 6 -15 1 -26 -12 -12 -13 -17 -16 -13 -8 4 8 7 30 5 50 -1 19 -2 45 -3 58 0
12 -4 22 -10 22 -5 0 -7 4 -3 9 3 6 -3 8 -13 6 -11 -2 -19 3 -19 11 0 8 7 14
16 14 11 1 7 6 -9 15 -14 8 -20 14 -14 15 31 1 -3 69 -35 71 -11 0 -12 2 -3 6
10 4 9 9 -5 19 -17 13 -17 14 2 7 11 -3 17 -3 13 2 -4 4 -24 9 -43 10 -28 1
-35 -2 -30 -13z m28 -9 c-5 -12 -3 -14 7 -8 9 6 11 4 5 -4 -5 -9 -11 -9 -17
-3 -6 6 -7 15 -4 21 11 17 16 13 9 -6z m67 -52 c7 -14 7 -22 -2 -27 -7 -4 -8
-3 -4 4 4 7 2 12 -4 12 -6 0 -9 4 -6 9 4 5 0 12 -6 14 -10 4 -10 6 -1 6 7 1
17 -8 23 -18z m44 -120 c3 -5 0 -14 -7 -19 -10 -8 -13 -6 -14 9 -2 19 11 26
21 10z m86 -256 c7 -8 9 -15 6 -15 -4 0 -14 7 -22 15 -9 8 -11 15 -6 15 5 0
15 -7 22 -15z m-513 -130 c0 -8 -4 -12 -9 -9 -5 3 -6 10 -3 15 9 13 12 11 12
-6z m58 -33 c-3 -3 -11 0 -18 7 -9 10 -8 11 6 5 10 -3 15 -9 12 -12z m255
-162 c-14 -9 -7 -14 13 -11 5 1 6 -3 2 -9 -4 -6 -13 -5 -25 3 -26 16 -25 22 2
24 18 2 20 0 8 -7z"/>
<path d="M2414 7316 c1 -6 5 -17 10 -24 4 -7 4 -12 -1 -11 -19 3 -22 -2 -13
-26 8 -21 7 -25 -8 -25 -10 0 -13 -3 -6 -8 11 -7 27 -42 19 -42 -2 0 -10 7
-19 15 -13 13 -14 12 -12 -10 1 -14 6 -28 11 -33 4 -4 5 -1 1 6 -4 6 -3 12 2
12 6 0 13 -7 16 -16 3 -8 2 -12 -4 -9 -6 3 -10 1 -10 -6 0 -8 -5 -7 -17 2 -16
13 -17 12 -4 -3 7 -10 17 -16 21 -13 4 3 8 -11 8 -30 0 -19 -4 -33 -8 -30 -5
3 -7 14 -5 25 2 12 0 18 -5 15 -5 -3 -7 -15 -5 -26 3 -12 0 -31 -6 -41 -9 -16
-8 -19 2 -13 9 6 10 3 6 -8 -9 -22 -15 -44 -10 -34 3 4 8 5 12 2 5 -2 7 11 5
30 -1 19 1 35 6 35 5 0 7 -14 5 -30 -3 -22 -1 -29 8 -23 9 5 9 3 1 -8 -12 -16
-12 -29 -1 -46 5 -8 1 -11 -12 -8 -11 2 -26 -4 -33 -13 -10 -12 -10 -14 0 -8
7 4 15 1 18 -8 3 -9 11 -13 17 -9 6 3 7 1 3 -6 -4 -6 -11 -9 -16 -6 -5 3 -11
1 -15 -5 -3 -5 -1 -10 4 -10 6 0 11 -5 11 -11 0 -5 -4 -8 -8 -5 -5 3 -9 -1 -9
-9 0 -18 9 -19 27 -2 8 6 5 1 -6 -13 -22 -26 -28 -60 -11 -60 6 0 6 -5 0 -12
-11 -15 -9 -100 3 -120 6 -10 4 -10 -9 1 -15 12 -17 12 -11 -3 3 -9 9 -16 13
-16 3 0 12 -10 20 -22 14 -23 13 -23 -7 -5 -13 12 -22 15 -27 8 -3 -6 1 -14 9
-17 9 -3 14 -10 11 -14 -3 -5 0 -12 6 -16 7 -4 9 -3 6 3 -4 6 2 13 12 16 15 3
18 1 14 -12 -4 -14 -3 -14 10 1 8 10 17 14 21 10 5 -4 7 0 6 8 -5 30 0 51 10
45 6 -4 8 -11 5 -16 -4 -5 -2 -9 3 -9 16 0 21 27 9 40 -9 10 -9 11 1 6 6 -4
12 -2 12 4 0 6 5 8 13 4 8 -5 7 -2 -2 9 -8 10 -11 20 -7 24 3 3 6 1 6 -6 0 -7
5 -9 13 -4 6 4 15 8 20 8 9 0 11 15 1 23 -4 4 -4 0 1 -8 5 -8 4 -12 0 -7 -12
10 -16 39 -5 32 15 -9 41 7 35 23 -4 12 -3 13 10 2 9 -7 18 -10 22 -6 3 3 2 6
-4 6 -6 0 -13 6 -16 13 -3 8 1 14 9 14 7 0 11 -4 8 -9 -3 -4 1 -5 9 -2 8 3 14
11 14 17 -1 31 4 47 14 47 6 0 8 -7 5 -16 -5 -14 -4 -15 9 -4 9 7 13 15 10 18
-3 3 0 11 5 18 6 6 9 16 8 20 -2 5 -1 9 2 9 13 0 37 31 33 41 -2 7 0 15 6 19
7 3 8 0 5 -9 -3 -9 -1 -16 5 -16 10 0 12 4 11 25 0 3 5 12 12 19 10 10 15 11
20 2 6 -8 8 -8 8 1 0 7 -8 17 -17 23 -14 8 -14 10 -3 9 40 -4 53 1 41 15 -7 9
-8 17 -2 20 5 3 12 0 14 -6 3 -8 6 -6 6 4 1 10 7 15 14 12 7 -2 13 4 14 16 1
11 -4 20 -10 20 -7 0 -6 4 3 10 9 5 19 5 27 -2 9 -7 13 -7 13 1 0 7 5 9 12 5
7 -4 8 -3 4 5 -4 6 -11 9 -15 7 -4 -3 -8 1 -8 9 0 8 4 12 8 9 4 -2 7 5 6 16
-1 11 -5 20 -10 20 -4 0 -5 6 -1 13 5 7 0 6 -11 -3 -17 -14 -18 -13 -11 4 7
20 7 20 -16 0 -12 -10 -17 -12 -11 -4 9 12 8 20 -4 35 -15 20 -15 20 -10 -2 3
-15 1 -20 -9 -16 -8 3 -12 9 -9 13 3 5 1 11 -4 14 -5 4 -12 2 -16 -4 -3 -5
-12 -10 -18 -10 -7 0 -6 4 3 11 11 7 7 9 -16 6 -22 -3 -31 -1 -31 9 0 8 4 14
9 14 4 0 8 -5 8 -11 0 -5 5 -7 11 -3 8 4 6 10 -6 17 -14 7 -22 5 -32 -9 -14
-19 -14 -19 -11 0 2 10 -3 21 -11 24 -9 3 -11 0 -6 -9 6 -11 5 -12 -6 -1 -7 6
-26 12 -41 12 -15 0 -28 4 -28 10 0 5 8 6 17 3 15 -6 16 -5 3 9 -11 11 -17 13
-22 4 -5 -7 -11 -8 -15 -1 -5 6 -26 11 -48 13 -61 4 -65 5 -65 13 0 4 -11 6
-25 4 -19 -2 -23 1 -15 10 7 8 5 12 -4 12 -8 0 -13 -5 -12 -11z m-9 -404 c-3
-3 -11 0 -18 7 -9 10 -8 11 6 5 10 -3 15 -9 12 -12z m5 -117 c-5 -7 -6 -16 -2
-21 4 -4 -1 -2 -10 5 -20 15 -17 28 6 28 11 0 13 -4 6 -12z m0 -49 c0 -2 -7
-7 -16 -10 -8 -3 -12 -2 -9 4 6 10 25 14 25 6z m-3 -51 c0 -8 -4 -12 -9 -9 -4
3 -8 9 -8 15 0 5 4 9 8 9 5 0 9 -7 9 -15z m-2 -35 c3 -5 1 -10 -4 -10 -6 0
-11 5 -11 10 0 6 2 10 4 10 3 0 8 -4 11 -10z"/>
<path d="M2450 7317 c0 -6 3 -8 6 -4 4 3 21 -1 38 -9 25 -12 28 -12 13 0 -13
10 -15 15 -5 18 7 3 -2 5 -19 5 -18 0 -33 -5 -33 -10z"/>
<path d="M1330 7259 c0 -5 5 -7 10 -4 6 3 10 8 10 11 0 2 -4 4 -10 4 -5 0 -10
-5 -10 -11z"/>
<path d="M1755 7130 c-3 -5 -1 -10 4 -10 6 0 11 5 11 10 0 6 -2 10 -4 10 -3 0
-8 -4 -11 -10z"/>
<path d="M6437 6978 c-11 -7 4 -13 26 -9 4 0 7 -4 7 -9 0 -6 -8 -10 -17 -8
-12 2 -18 -3 -17 -14 1 -10 -2 -18 -6 -18 -5 0 -7 -12 -5 -27 2 -16 2 -22 -1
-15 -3 6 -10 10 -15 7 -5 -4 -6 1 -3 9 3 9 2 16 -3 16 -5 0 -9 -9 -10 -20 -1
-11 4 -20 10 -20 9 0 9 -2 1 -8 -6 -4 -15 -18 -19 -31 -6 -18 -4 -22 6 -15 10
6 10 3 -1 -11 -8 -10 -14 -20 -12 -22 1 -1 1 -2 -1 0 -1 1 -10 -5 -19 -13 -12
-11 -13 -20 -6 -34 7 -13 7 -16 -1 -12 -7 4 -11 -2 -11 -16 0 -13 0 -34 -1
-48 0 -18 -2 -21 -9 -11 -4 8 -6 23 -4 34 3 16 1 18 -8 9 -7 -7 -13 -36 -13
-65 -2 -59 -9 -77 -32 -77 -9 0 -13 -6 -10 -15 4 -8 2 -17 -4 -20 -5 -4 -6
-12 -2 -18 4 -7 8 -18 9 -25 2 -11 0 -11 -14 0 -12 10 -14 10 -8 0 4 -7 9 -25
11 -40 2 -15 2 -21 -1 -14 -3 6 -15 12 -27 12 -21 -1 -21 -1 -4 -14 15 -11 15
-15 3 -19 -9 -4 -12 -14 -9 -28 5 -16 3 -20 -6 -14 -10 6 -11 3 -2 -14 8 -14
8 -21 1 -21 -5 0 -10 6 -10 12 0 7 -6 3 -14 -8 -16 -22 -16 -40 -2 -63 6 -10
5 -12 -2 -7 -8 5 -12 -4 -12 -29 0 -22 -4 -34 -10 -30 -5 3 -10 1 -10 -4 0 -6
5 -11 12 -11 6 0 8 -3 5 -6 -4 -4 -14 -1 -23 7 -16 13 -16 12 -4 -11 12 -23
12 -24 -4 -11 -15 13 -16 12 -7 -12 7 -18 7 -27 -2 -31 -9 -3 -9 -5 1 -5 6 -1
12 -5 12 -11 0 -5 -6 -7 -14 -4 -8 3 -17 0 -21 -7 -9 -14 -16 -83 -8 -75 3 3
15 1 26 -5 13 -7 17 -7 13 -1 -3 6 -2 13 4 17 6 3 10 -4 10 -17 1 -21 2 -21
11 -5 6 10 8 24 5 32 -3 10 2 12 19 9 14 -2 25 2 29 11 3 8 13 15 23 15 15 0
16 2 3 10 -12 7 -11 9 5 10 63 1 72 4 67 22 -3 12 1 18 12 18 11 0 14 -5 10
-12 -4 -7 -3 -8 4 -4 7 4 12 15 13 24 0 11 3 12 6 5 8 -22 21 -14 16 10 -4 18
-3 19 6 7 9 -13 15 -8 13 11 -1 4 8 4 20 1 17 -4 20 -2 15 13 -7 17 -6 17 20
0 16 -10 25 -14 21 -10 -4 5 -3 13 2 20 7 8 5 12 -5 12 -8 0 -11 -5 -8 -10 3
-6 1 -7 -6 -3 -6 4 -9 12 -5 17 3 6 8 8 11 5 3 -3 14 -1 24 5 14 7 19 6 19 -2
0 -8 4 -8 15 1 20 16 19 27 -2 34 -10 2 -2 4 17 3 24 -1 34 2 32 11 -2 9 2 11
10 6 21 -13 35 -13 35 2 0 7 -4 11 -9 8 -4 -3 -8 0 -8 5 0 9 10 12 35 11 3 0
17 13 32 30 20 24 28 28 39 19 11 -9 14 -8 15 7 1 11 1 21 1 24 0 3 8 7 19 7
10 1 19 -4 19 -10 0 -7 6 -4 14 5 8 11 16 14 22 8 6 -6 10 -3 11 10 1 13 -3
17 -15 14 -12 -4 -12 -2 2 7 15 9 21 9 24 1 2 -8 7 -8 17 1 7 7 10 17 7 22 -3
6 4 2 15 -8 16 -14 20 -15 20 -2 0 8 -4 15 -9 15 -4 0 -8 5 -8 10 0 12 22 9
32 -5 5 -6 8 -3 8 6 0 9 8 16 18 16 42 0 46 3 26 18 -18 14 -18 14 3 10 16 -3
20 0 16 12 -5 13 -3 13 15 4 15 -8 23 -8 28 1 5 7 3 8 -6 3 -9 -6 -10 -2 -5
15 5 17 4 21 -5 15 -9 -5 -11 -4 -6 4 4 6 11 9 16 6 5 -3 12 0 16 6 4 7 3 9
-3 6 -13 -8 -26 20 -16 36 4 7 -1 6 -11 -2 -13 -11 -19 -12 -29 -2 -9 10 -8
11 6 6 10 -4 17 -2 17 4 0 6 -7 11 -15 11 -8 0 -15 5 -15 10 0 6 -7 10 -16 10
-9 0 -12 5 -8 13 5 8 2 8 -9 -2 -19 -15 -23 -1 -5 17 7 7 10 12 7 13 -2 0 -12
2 -22 4 -14 3 -17 -1 -12 -13 5 -14 4 -15 -7 -4 -7 7 -14 17 -14 23 -4 28 -1
27 -60 31 l-26 2 23 20 c18 14 19 18 5 13 -14 -6 -17 -4 -12 9 5 14 4 15 -9 4
-12 -10 -15 -10 -15 0 0 10 -3 10 -15 0 -13 -11 -14 -8 -11 19 3 26 1 29 -11
20 -19 -17 -29 -3 -12 18 11 15 10 15 -9 -1 -12 -11 -25 -16 -29 -13 -3 4 -1
7 5 7 7 0 12 5 12 11 0 6 -6 9 -14 6 -7 -3 -20 3 -30 14 -19 22 -21 33 -4 23
7 -4 8 -3 4 4 -4 6 -13 9 -21 5 -8 -3 -15 0 -15 7 0 7 -8 10 -19 7 -12 -3 -22
1 -25 10 -3 8 -2 12 3 9 5 -3 15 2 22 12 11 14 11 15 -1 5 -11 -10 -19 -9 -39
10 -14 12 -20 15 -13 6 15 -20 5 -32 -13 -16 -7 7 -10 18 -7 26 3 9 1 12 -6 7
-7 -4 -12 -3 -12 2 0 11 -46 11 -63 0z m-147 -448 c0 -5 -2 -10 -4 -10 -3 0
-8 5 -11 10 -3 6 -1 10 4 10 6 0 11 -4 11 -10z m-91 -231 c-16 -10 -23 -4 -14
10 3 6 11 8 17 5 6 -4 5 -9 -3 -15z m-79 -229 c-18 -11 -3 -30 18 -23 19 7 17
4 -13 -17 -11 -8 -17 -10 -13 -6 4 5 3 15 -2 21 -12 15 -2 47 12 39 6 -4 6 -9
-2 -14z"/>
<path d="M2382 6961 c-11 -7 -11 -9 0 -14 9 -3 15 1 15 9 0 8 -1 14 -1 14 -1
0 -7 -4 -14 -9z"/>
<path d="M5575 6920 c3 -5 8 -10 11 -10 2 0 4 5 4 10 0 6 -5 10 -11 10 -5 0
-7 -4 -4 -10z"/>
<path d="M5630 6921 c0 -5 5 -13 10 -16 6 -3 10 -2 10 4 0 5 -4 13 -10 16 -5
3 -10 2 -10 -4z"/>
<path d="M5548 6907 c8 -10 6 -13 -9 -13 -10 0 -19 4 -19 9 0 4 -5 5 -10 2 -6
-4 -7 -12 -3 -18 5 -9 3 -9 -8 -1 -22 17 -64 10 -62 -10 0 -10 -1 -15 -4 -12
-3 3 -14 1 -24 -4 -12 -7 -20 -7 -24 0 -4 7 -13 7 -24 0 -12 -6 -22 -5 -31 3
-7 7 -10 7 -7 2 3 -6 -1 -19 -9 -30 -14 -19 -15 -19 -10 9 l5 29 -19 -21 c-23
-24 -26 -37 -7 -26 6 4 9 4 5 -1 -10 -10 -79 -14 -72 -4 3 5 -2 6 -10 3 -8 -3
-16 -15 -18 -27 -2 -16 -9 -21 -23 -19 -16 2 -17 1 -5 -7 8 -5 18 -7 22 -5 7
4 13 -52 9 -78 0 -4 6 -5 14 -2 9 4 15 0 15 -7 0 -11 3 -11 10 1 7 11 9 5 6
-22 -4 -31 0 -41 21 -57 15 -12 22 -25 17 -32 -5 -8 -3 -9 6 -4 10 6 12 4 7
-8 -8 -21 -3 -21 16 -2 13 13 16 13 21 -1 3 -8 2 -12 -4 -9 -16 10 -12 -7 7
-27 16 -18 16 -19 -3 -13 -18 6 -18 6 -1 -8 14 -11 15 -16 5 -21 -9 -4 -9 -5
2 -5 38 3 43 0 30 -17 -11 -13 -10 -16 8 -21 12 -3 22 -10 22 -15 0 -5 6 -6
13 -2 8 5 8 2 -2 -9 -9 -11 -10 -17 -2 -17 6 0 11 -11 11 -23 0 -30 10 -40 27
-26 10 9 13 8 13 -4 0 -9 -5 -19 -11 -23 -17 -10 12 -25 36 -18 l20 6 -20 -15
c-20 -15 -20 -16 5 -26 14 -5 20 -10 15 -10 -6 -1 -11 -10 -11 -20 0 -15 4
-17 18 -10 13 7 20 4 29 -12 9 -18 9 -21 -3 -16 -8 3 -15 0 -15 -7 0 -17 67
-17 68 0 1 8 2 20 3 27 1 6 -2 18 -7 25 -6 8 -6 12 2 12 6 0 11 -4 11 -9 0 -5
6 -11 13 -14 8 -3 14 1 14 9 0 7 -4 11 -8 9 -4 -3 -10 3 -14 13 -12 25 -14 41
-7 41 4 -1 16 -1 26 0 20 1 20 1 0 17 -19 15 -19 16 1 10 20 -6 20 -6 1 9 -12
9 -15 15 -7 15 7 0 11 6 8 15 -4 8 -2 17 3 20 6 4 10 12 10 18 0 7 -4 6 -10
-3 -8 -12 -9 -9 -8 12 1 15 6 24 10 22 4 -3 8 -1 8 5 0 5 -5 13 -10 16 -8 5
-7 11 1 21 6 8 8 14 4 14 -4 0 -2 7 5 15 11 13 10 14 -4 9 -9 -3 -16 -1 -16 5
0 6 10 11 23 11 18 0 19 2 7 10 -15 9 -22 60 -8 60 4 0 12 -8 17 -17 6 -10 10
-13 11 -8 0 6 -4 17 -10 25 -5 9 -5 19 1 26 7 8 6 15 -2 20 -8 5 -9 3 -4 -6 6
-9 4 -11 -5 -5 -8 5 -11 4 -6 -3 3 -6 3 -13 -2 -16 -4 -2 -9 4 -9 15 -2 19 7
23 36 19 12 -1 12 1 3 13 -12 14 -11 65 2 86 4 6 2 11 -5 11 -8 0 -7 5 2 17
12 15 12 16 -1 8 -13 -8 -13 -7 -1 8 7 9 10 17 6 17 -4 0 -1 8 6 17 8 9 9 14
3 10 -7 -4 -14 3 -16 18 -3 13 -2 22 3 19 4 -2 7 4 6 15 -1 14 -5 17 -13 10
-8 -7 -14 -6 -19 1 -3 5 -15 10 -26 10 -14 0 -18 -4 -13 -12 6 -10 4 -10 -7
-2 -8 6 -23 14 -33 18 -15 5 -16 4 -8 -7z m-62 -29 c4 -6 3 -8 -4 -4 -6 3 -15
-2 -21 -11 -6 -10 -11 -13 -11 -7 0 9 19 34 26 34 2 0 6 -5 10 -12z m149 -197
c3 -5 2 -12 -3 -15 -5 -3 -9 1 -9 9 0 17 3 19 12 6z m-370 -41 c-3 -5 0 -10 7
-11 10 0 10 -2 0 -6 -6 -2 -9 -10 -5 -16 4 -7 -1 -6 -10 2 -13 10 -15 17 -6
27 13 16 23 19 14 4z m168 -285 c-3 -9 -8 -14 -10 -11 -3 3 -2 9 2 15 9 16 15
13 8 -4z"/>
<path d="M5387 6879 c7 -7 15 -10 18 -7 3 3 -2 9 -12 12 -14 6 -15 5 -6 -5z"/>
<path d="M2687 6865 c3 -8 9 -12 14 -9 12 7 11 11 -5 17 -10 4 -13 1 -9 -8z"/>
<path d="M6350 6805 c0 -2 6 -8 13 -14 10 -8 14 -7 14 2 0 8 -6 14 -14 14 -7
0 -13 -1 -13 -2z"/>
<path d="M5150 6740 c0 -5 7 -7 15 -4 8 4 15 8 15 10 0 2 -7 4 -15 4 -8 0 -15
-4 -15 -10z"/>
<path d="M820 6640 c0 -5 -8 -7 -17 -4 -15 5 -15 4 -3 -4 8 -6 18 -8 24 -5 5
4 6 1 2 -6 -5 -7 -15 -10 -23 -7 -8 3 -11 1 -8 -4 3 -6 1 -10 -6 -10 -10 0
-10 -3 -1 -12 9 -9 7 -14 -6 -24 -11 -9 -13 -17 -7 -21 14 -11 17 -33 4 -33
-5 0 -8 -4 -5 -8 3 -5 -2 -9 -10 -9 -10 0 -11 4 -4 11 12 12 13 26 1 26 -17 0
-19 -40 -3 -50 16 -9 16 -9 1 -10 -9 0 -20 -7 -23 -16 -3 -8 -2 -13 2 -10 5 3
9 -1 9 -9 0 -8 -3 -12 -7 -10 -4 2 -12 -7 -18 -20 -9 -20 -8 -26 6 -35 13 -8
11 -9 -13 -4 -17 3 -25 2 -19 -3 17 -13 25 -43 11 -40 -7 1 -11 -4 -10 -10 2
-7 -2 -13 -9 -13 -6 0 -3 -7 8 -15 19 -14 19 -14 -3 -15 -12 0 -24 6 -27 13
-2 6 -4 2 -2 -10 1 -12 6 -26 11 -30 4 -5 5 -2 1 5 -4 6 -3 12 3 12 5 0 9 -9
8 -19 -1 -16 -4 -18 -22 -9 -18 10 -18 9 -7 -4 9 -12 10 -18 2 -23 -8 -5 -5
-11 7 -20 10 -7 21 -11 26 -8 4 2 6 1 5 -4 -2 -4 2 -8 7 -8 6 0 9 5 7 10 -2 6
3 4 10 -4 10 -11 10 -14 1 -18 -31 -11 -7 -19 67 -21 54 -1 79 2 74 9 -3 6
-12 8 -20 5 -22 -8 -17 2 7 15 12 6 19 7 15 1 -11 -19 19 -30 81 -30 34 1 60
4 57 9 -5 8 9 6 55 -7 16 -5 22 -4 18 3 -4 6 0 16 7 22 10 9 16 9 21 1 4 -6 4
-14 1 -17 -3 -4 -6 -1 -6 6 0 7 -5 9 -10 6 -23 -14 4 -23 75 -23 41 0 73 3 71
7 -3 4 1 8 9 8 8 0 12 -4 9 -9 -8 -13 20 -9 35 5 11 10 13 10 7 0 -5 -8 -1
-13 9 -13 10 0 13 5 9 13 -6 9 -4 9 7 1 8 -7 34 -11 58 -10 37 1 45 4 47 24 2
12 0 22 -5 22 -6 0 -8 -9 -6 -20 2 -12 0 -18 -6 -15 -5 4 -7 10 -4 15 3 5 -3
14 -12 20 -17 11 -17 11 0 6 21 -7 23 10 1 18 -8 3 -12 10 -9 16 8 12 -1 13
-24 1 -13 -8 -17 -5 -18 12 -2 15 0 18 6 8 5 -7 11 -9 14 -4 8 12 -33 32 -51
26 -6 -3 -9 -10 -6 -15 4 -7 2 -8 -5 -4 -9 6 -9 11 0 23 10 12 10 16 -2 24 -8
5 -20 9 -28 9 -8 0 -11 7 -8 20 3 11 1 18 -3 15 -5 -3 -10 1 -13 7 -3 10 -8 9
-22 -2 -11 -9 -16 -10 -11 -2 5 8 0 12 -13 12 -13 0 -23 8 -27 24 -3 13 -12
23 -22 22 -9 0 -18 9 -22 24 -6 24 -6 24 -18 5 -12 -19 -12 -18 -6 5 6 22 5
23 -9 12 -14 -12 -16 -11 -12 6 2 12 -3 23 -12 26 -11 5 -14 2 -9 -11 5 -13 4
-15 -4 -7 -6 6 -12 21 -13 32 0 12 -7 24 -15 27 -7 2 -10 1 -7 -4 3 -5 1 -12
-5 -16 -5 -3 -10 1 -10 10 0 9 -3 14 -8 11 -4 -2 -16 2 -27 11 -19 14 -19 14
5 10 14 -2 19 -2 12 0 -7 3 -10 8 -7 13 3 4 -4 6 -15 3 -11 -3 -20 0 -20 6 0
6 -9 11 -20 11 -11 0 -19 3 -19 8 3 19 -3 28 -21 29 -13 1 -18 -3 -14 -10 3
-7 -8 3 -25 21 -17 18 -31 28 -31 22z m-70 -239 c0 -6 -4 -12 -8 -15 -5 -3 -9
1 -9 9 0 8 4 15 9 15 4 0 8 -4 8 -9z m498 -92 c-3 -8 -7 -3 -11 10 -4 17 -3
21 5 13 5 -5 8 -16 6 -23z m-454 -147 c3 -5 -1 -9 -9 -9 -8 0 -12 4 -9 9 3 4
7 8 9 8 2 0 6 -4 9 -8z m111 -1 c3 -5 2 -12 -3 -15 -5 -3 -9 1 -9 9 0 17 3 19
12 6z m41 -3 c4 -7 3 -8 -4 -4 -7 4 -12 2 -12 -5 0 -7 -3 -10 -6 -6 -6 5 3 27
11 27 2 0 7 -5 11 -12z m215 -5 c12 -16 12 -17 -2 -6 -9 7 -20 9 -24 5 -5 -4
-5 -1 -1 6 9 16 11 15 27 -5z"/>
<path d="M846 6642 c-3 -5 1 -15 9 -22 16 -14 20 -3 6 19 -5 8 -11 9 -15 3z"/>
<path d="M1693 6585 c0 -8 4 -12 9 -9 5 3 6 10 3 15 -9 13 -12 11 -12 -6z"/>
<path d="M1150 6420 c-9 -6 -10 -10 -3 -10 6 0 15 5 18 10 8 12 4 12 -15 0z"/>
<path d="M5371 6404 c0 -11 3 -14 6 -6 3 7 2 16 -1 19 -3 4 -6 -2 -5 -13z"/>
<path d="M1184 6378 c3 -15 26 -23 26 -8 0 6 -4 9 -9 6 -5 -4 -12 -1 -14 4 -3
6 -4 5 -3 -2z"/>
<path d="M6727 6373 c-4 -3 -7 -13 -7 -22 1 -13 3 -13 11 2 11 19 8 33 -4 20z"/>
<path d="M6673 6338 c-20 -26 -22 -35 -8 -35 8 0 11 5 8 10 -3 5 1 13 8 18 7
4 11 11 8 14 -4 3 -11 0 -16 -7z"/>
<path d="M5596 6282 c-3 -6 -1 -14 5 -17 14 -9 20 -2 10 14 -6 8 -11 9 -15 3z"/>
<path d="M3086 6263 c-4 -5 -16 -9 -27 -9 -35 -3 -39 -4 -39 -15 0 -8 5 -8 15
1 10 9 15 9 15 1 0 -6 -4 -11 -9 -11 -5 0 -18 -8 -27 -17 -17 -17 -18 -17 -11
0 3 9 2 17 -3 17 -6 0 -10 -7 -10 -15 0 -8 -3 -14 -7 -14 -20 3 -34 -2 -28
-11 3 -5 13 -6 23 -3 13 4 13 2 -3 -10 -13 -10 -24 -12 -31 -6 -8 6 -14 4 -18
-7 -9 -23 -8 -26 7 -19 6 4 3 -1 -7 -9 -13 -10 -15 -16 -7 -16 10 0 11 -3 2
-13 -6 -8 -7 -18 -3 -22 4 -5 1 -5 -6 -1 -7 4 -10 11 -7 16 3 4 -3 14 -13 21
-14 11 -15 11 -5 0 17 -19 5 -45 -13 -30 -11 9 -14 9 -11 -2 2 -8 2 -11 0 -6
-3 4 -8 5 -12 2 -5 -2 -7 6 -6 19 2 12 -2 23 -9 23 -51 4 -98 12 -104 18 -4 5
-2 6 3 2 13 -7 42 9 34 18 -4 3 -16 7 -28 10 -11 2 -27 7 -34 10 -6 4 -3 -1 7
-9 11 -9 16 -16 10 -16 -14 0 -29 13 -43 35 -11 19 -12 18 -7 -5 3 -14 3 -19
0 -12 -3 6 -10 10 -15 7 -5 -4 -6 2 -2 11 5 13 3 15 -7 9 -10 -6 -12 -4 -7 9
4 11 3 15 -4 11 -6 -4 -8 -13 -5 -20 2 -7 -1 -16 -8 -18 -8 -3 -13 1 -12 10 0
9 -5 18 -13 21 -10 3 -11 0 -5 -9 5 -9 -2 -7 -20 5 -16 10 -25 13 -21 6 6 -9
0 -11 -24 -8 -19 3 -31 0 -31 -7 0 -23 -22 -34 -47 -24 -22 8 -24 7 -19 -7 6
-15 4 -15 -11 -3 -15 13 -16 12 -11 -8 4 -16 2 -20 -8 -16 -8 3 -11 10 -7 17
4 6 -1 5 -10 -3 -9 -7 -14 -17 -11 -22 4 -8 -8 -13 -27 -11 -3 1 -6 -5 -6 -13
0 -7 5 -12 11 -11 6 2 8 1 3 -1 -4 -3 -5 -9 -2 -14 4 -5 -1 -6 -9 -3 -9 3 -16
1 -16 -6 0 -6 -4 -8 -10 -5 -6 3 -7 -1 -4 -9 3 -9 11 -13 17 -9 6 3 7 1 3 -6
-6 -9 -11 -9 -22 0 -12 10 -13 9 -8 -6 5 -11 4 -16 -3 -12 -5 3 -10 1 -10 -6
0 -7 -4 -20 -8 -30 -6 -14 -3 -16 11 -11 14 4 15 3 6 -3 -7 -6 -14 -26 -15
-45 -2 -29 -5 -34 -22 -31 -18 4 -19 3 -2 -7 9 -6 15 -16 11 -21 -3 -6 -12 -5
-22 3 -13 10 -14 10 -8 0 6 -9 1 -11 -18 -8 -15 3 -24 1 -21 -4 3 -4 -1 -11
-7 -14 -7 -3 -3 -3 10 0 23 6 23 5 5 -15 -18 -21 -29 -28 -19 -12 4 5 -3 7
-14 4 -11 -3 -23 -9 -26 -14 -3 -5 3 -6 13 -2 12 4 10 -1 -7 -15 l-25 -21 -17
22 c-9 12 -15 24 -13 28 3 3 -7 4 -22 1 -20 -4 -24 -2 -18 9 7 11 5 11 -10 -1
-17 -14 -18 -13 -12 2 4 13 1 16 -14 13 -10 -2 -19 0 -19 5 0 4 -7 11 -16 14
-8 3 -13 2 -10 -3 3 -5 -1 -12 -10 -15 -8 -3 -13 -2 -10 3 3 5 -1 12 -10 15
-8 3 -12 2 -9 -4 3 -6 1 -10 -4 -10 -6 0 -11 4 -11 8 0 5 -7 9 -15 9 -13 0
-12 -4 2 -20 18 -20 18 -20 -7 -4 -14 8 -39 18 -57 20 -25 4 -30 2 -26 -10 5
-12 7 -12 14 -1 5 8 9 9 9 2 0 -6 -7 -17 -15 -24 -8 -7 -15 -9 -15 -5 0 4 -6
2 -14 -4 -17 -14 -32 2 -20 21 4 7 3 8 -4 4 -7 -4 -12 -14 -12 -21 0 -9 -9
-14 -22 -12 -18 1 -23 -3 -22 -19 1 -16 -4 -19 -26 -16 -19 3 -27 -1 -27 -12
0 -13 3 -13 16 -3 14 10 14 10 4 -4 -7 -9 -9 -19 -5 -24 4 -4 -4 -2 -17 5 -19
10 -22 10 -16 -1 6 -9 4 -11 -7 -6 -12 4 -15 -1 -14 -24 1 -16 -1 -29 -6 -29
-4 0 -8 5 -8 11 0 5 -4 8 -9 5 -4 -3 -7 -16 -7 -28 1 -13 -1 -31 -6 -40 -5
-10 -3 -19 5 -22 6 -4 2 -4 -10 -2 -16 3 -20 0 -16 -12 5 -11 3 -13 -8 -7 -11
7 -12 6 -2 -7 7 -8 9 -19 5 -23 -4 -5 -1 -5 6 -1 7 4 10 11 7 16 -3 5 -2 11 3
14 5 3 7 -13 6 -35 -1 -24 3 -39 10 -39 8 0 8 -2 0 -8 -6 -4 -11 -16 -11 -27
0 -11 5 -23 11 -27 7 -5 6 -8 -3 -8 -11 0 -11 -3 0 -17 12 -15 12 -16 -1 -8
-13 8 -13 7 -1 -8 11 -14 11 -17 0 -17 -8 0 -5 -6 7 -14 14 -11 21 -11 27 -3
6 8 7 7 4 -3 -2 -8 0 -23 5 -34 8 -14 7 -17 -4 -10 -10 6 -9 3 2 -12 8 -10 16
-21 17 -23 1 -2 11 2 20 10 15 11 16 11 6 -1 -18 -20 -16 -40 5 -40 14 0 15
-2 2 -10 -8 -5 -10 -10 -5 -10 6 0 3 -5 -5 -11 -13 -9 -13 -10 0 -8 34 3 47
-2 60 -26 7 -13 17 -22 22 -19 4 3 8 -2 8 -11 0 -27 25 -46 41 -32 7 7 6 3 -4
-9 -9 -11 -14 -24 -10 -29 5 -4 2 -5 -5 -1 -7 4 -10 11 -7 16 9 14 -24 33 -50
28 -29 -6 -30 -5 -10 26 13 19 13 23 1 23 -8 0 -12 -6 -9 -13 2 -6 0 -15 -6
-19 -6 -3 -14 1 -17 10 -5 12 -14 14 -35 10 -19 -4 -29 -3 -29 5 0 6 5 8 12 4
7 -4 8 -3 4 4 -5 9 -12 8 -27 -1 -16 -10 -21 -9 -29 3 -5 8 -7 17 -4 21 2 4
-1 11 -7 15 -7 4 -9 3 -5 -4 3 -6 -3 -12 -16 -15 l-23 -4 23 -2 c12 0 22 -5
22 -11 0 -5 -11 -9 -25 -8 -14 1 -25 6 -25 10 0 4 -5 8 -11 8 -5 0 -7 -4 -4
-10 8 -13 -8 -13 -22 1 -7 7 -15 6 -25 -5 -11 -11 -18 -12 -27 -3 -8 8 -11 8
-12 -1 -1 -7 -2 -17 -3 -24 0 -6 -10 -12 -21 -14 -11 -2 -31 -5 -45 -7 -20 -3
-25 -10 -24 -30 1 -22 -2 -24 -20 -17 -18 6 -22 4 -22 -11 0 -10 4 -19 8 -19
4 0 8 -5 8 -11 0 -5 -4 -7 -10 -4 -5 3 -10 1 -10 -4 0 -6 -3 -10 -7 -9 -5 2
-9 -1 -10 -6 -1 -5 -7 -13 -15 -18 -10 -8 -10 -9 2 -5 8 2 14 11 12 18 -3 11
-1 11 9 2 10 -10 7 -16 -12 -32 -24 -20 -24 -20 -4 -36 11 -9 14 -14 8 -10 -7
3 -14 1 -14 -4 -5 -43 -2 -58 16 -73 11 -10 15 -17 8 -18 -7 0 -13 5 -13 10 0
6 -4 10 -8 10 -5 0 -9 -7 -9 -15 0 -8 4 -15 8 -15 5 0 7 -13 5 -29 -2 -22 0
-28 11 -24 10 4 11 9 3 18 -7 9 -5 16 7 26 16 13 17 12 5 -3 -9 -11 -10 -18
-2 -23 6 -3 8 -11 5 -16 -4 -5 0 -9 7 -9 9 0 9 -3 -2 -10 -9 -6 -10 -10 -3
-10 6 0 10 -9 8 -20 -2 -11 1 -23 7 -26 7 -4 8 -2 4 4 -4 7 -2 12 3 12 6 0 11
-5 11 -11 0 -5 5 -7 11 -3 7 4 9 0 5 -14 -4 -11 -2 -23 4 -27 6 -4 7 -12 3
-19 -4 -7 -1 -4 8 6 16 16 17 16 23 0 3 -9 9 -24 12 -32 4 -8 -1 -6 -10 5 -16
19 -16 19 -4 -8 8 -19 15 -24 22 -17 13 13 26 13 26 -1 0 -5 -4 -7 -10 -4 -20
12 -9 -6 18 -32 15 -14 19 -20 10 -13 -11 7 -18 8 -18 2 0 -15 26 -22 38 -10
6 6 9 0 7 -19 -1 -19 3 -30 11 -31 8 -1 20 -3 27 -4 8 -1 14 -7 14 -14 0 -7
-4 -11 -9 -8 -4 3 -8 0 -8 -5 0 -15 37 -14 42 1 3 7 7 5 11 -6 4 -10 3 -15 -3
-11 -6 3 -10 1 -10 -4 0 -6 5 -11 11 -11 5 0 8 -4 4 -9 -3 -5 -1 -12 5 -16 5
-3 10 0 11 7 0 7 4 2 10 -10 5 -13 7 -28 4 -32 -3 -4 4 -6 15 -3 11 3 20 0 20
-6 0 -6 6 -10 13 -9 7 2 11 -5 9 -18 -2 -18 2 -21 25 -18 15 2 20 1 11 -2 -22
-7 -24 -24 -3 -24 8 0 15 -5 15 -11 0 -5 4 -8 9 -5 5 3 12 -5 15 -19 4 -16 13
-25 26 -25 13 0 20 -7 20 -19 0 -21 30 -38 31 -18 0 7 5 1 11 -13 16 -36 18
-50 6 -50 -6 0 -7 8 -3 18 5 13 4 14 -6 5 -10 -10 -9 -16 1 -28 11 -14 11 -16
-1 -13 -8 2 -17 8 -21 13 -4 6 -11 10 -15 11 -20 2 -42 17 -38 24 3 5 1 11 -5
15 -6 4 -8 10 -5 14 2 5 -6 6 -20 4 -20 -4 -23 -1 -21 19 3 21 -1 24 -26 20
-22 -3 -28 0 -29 14 0 11 -3 14 -5 7 -4 -8 -12 -5 -25 8 -11 11 -24 17 -29 14
-6 -4 -10 -2 -10 3 0 5 -20 8 -45 7 -24 -1 -42 1 -40 5 3 4 -3 14 -13 21 -15
12 -16 12 -4 -2 10 -13 10 -18 -1 -28 -14 -11 -27 -6 -27 11 0 5 5 6 12 2 7
-5 8 -3 3 6 -6 10 -11 9 -22 -5 -7 -11 -13 -15 -13 -11 0 5 -6 3 -14 -3 -10
-9 -15 -9 -18 -1 -2 8 -13 4 -28 -9 -14 -11 -19 -20 -12 -21 7 0 10 -5 6 -11
-5 -8 -10 -6 -16 5 -5 9 -6 21 -2 28 5 7 3 8 -5 4 -7 -5 -10 -14 -8 -20 3 -7
-4 -18 -15 -25 -11 -7 -17 -8 -14 -2 4 7 1 8 -8 5 -21 -8 -20 -13 7 -25 l22
-10 -22 5 c-12 2 -28 -2 -34 -10 -9 -11 -9 -14 2 -11 8 2 11 2 6 0 -4 -3 -5
-9 -2 -13 3 -5 0 -12 -6 -16 -7 -4 -9 -3 -6 3 4 6 0 13 -8 17 -8 3 -17 0 -21
-6 -4 -7 -3 -8 4 -4 7 4 12 1 12 -9 0 -9 -4 -14 -9 -11 -10 7 -9 -64 2 -81 4
-6 3 -14 -2 -17 -10 -7 -9 -106 2 -123 4 -6 1 -13 -5 -15 -8 -3 -3 -10 12 -18
22 -11 23 -11 13 1 -8 10 -9 19 -1 29 8 12 9 12 4 -2 -3 -10 -1 -20 4 -23 6
-4 10 -13 10 -22 0 -11 -6 -14 -21 -10 -13 4 -18 2 -13 -3 5 -5 18 -11 29 -13
27 -4 45 -16 45 -30 0 -7 -4 -6 -10 3 -5 8 -13 11 -17 6 -4 -5 -2 -11 4 -13 7
-3 21 -12 31 -21 10 -9 11 -12 3 -7 -12 8 -13 6 -8 -8 4 -10 7 -21 7 -23 0 -3
9 0 19 6 20 10 24 -2 8 -27 -5 -7 1 -10 18 -9 13 2 22 -1 19 -5 -3 -5 0 -9 7
-9 8 0 7 -5 -2 -17 -10 -11 -10 -14 -1 -9 7 4 12 2 12 -5 0 -6 8 -9 18 -7 11
3 19 0 19 -8 0 -7 -4 -11 -9 -8 -14 9 -9 -6 7 -23 8 -8 13 -18 10 -22 -2 -5 8
-6 23 -4 21 4 24 2 12 -6 -13 -9 -13 -11 3 -11 9 0 17 -5 17 -11 0 -5 -6 -7
-12 -3 -9 5 -9 2 1 -9 7 -9 22 -17 32 -17 19 0 26 -16 10 -22 -5 -1 -2 -10 7
-18 14 -13 15 -12 9 3 -3 9 -2 17 3 17 6 0 10 -5 10 -11 0 -5 5 -7 11 -3 7 4
7 -1 -1 -16 -10 -18 -9 -21 1 -15 9 6 11 3 6 -8 -3 -9 -1 -19 5 -23 6 -4 8 -3
4 4 -3 6 -1 14 5 18 8 4 7 9 -2 16 -11 8 -11 9 1 5 8 -2 14 -12 12 -22 -2 -12
1 -16 11 -12 21 8 28 -2 17 -23 -6 -12 -5 -17 5 -17 8 0 11 5 8 10 -3 6 -1 7
5 3 7 -4 12 -16 12 -27 0 -10 5 -19 11 -19 5 0 8 -4 4 -9 -3 -6 3 -8 15 -6 11
2 22 -1 25 -6 4 -5 10 -7 14 -5 4 3 8 -1 8 -9 0 -8 -4 -12 -9 -9 -4 3 -8 0 -8
-5 0 -6 7 -11 16 -11 10 0 14 -5 10 -16 -3 -8 -2 -12 4 -9 6 3 10 0 10 -7 0
-9 3 -9 10 2 8 12 10 11 10 -7 0 -13 5 -23 11 -23 5 0 7 6 3 13 -5 7 -1 7 12
-3 29 -22 30 -24 12 -17 -10 3 -20 1 -24 -5 -4 -6 -3 -8 4 -4 6 3 13 2 17 -4
4 -6 11 -8 16 -5 5 4 9 1 9 -6 0 -8 5 -7 18 2 15 13 16 12 3 -3 -7 -10 -17
-16 -21 -13 -5 3 -12 0 -15 -6 -5 -6 0 -10 11 -9 35 4 42 0 37 -19 -3 -10 0
-22 6 -25 6 -4 9 -1 5 7 -3 8 -1 17 3 20 8 5 12 -8 15 -50 1 -7 5 -10 10 -7 4
3 8 0 8 -6 0 -6 5 -8 11 -5 6 5 4 12 -8 20 -10 7 -16 15 -13 18 3 2 16 -7 30
-21 14 -13 19 -22 13 -18 -7 4 -13 2 -13 -3 0 -6 5 -11 10 -11 6 0 9 -6 8 -12
-2 -7 7 -14 19 -16 27 -4 67 -57 59 -77 -3 -9 0 -12 10 -8 9 3 18 -5 27 -24 8
-19 18 -27 30 -25 12 2 17 -3 17 -17 0 -23 15 -28 24 -8 3 6 3 -1 -1 -18 -5
-28 -4 -29 9 -11 12 15 17 16 23 6 5 -9 4 -11 -3 -6 -7 4 -12 3 -12 -3 0 -18
12 -41 22 -41 5 0 6 5 2 12 -4 7 -3 8 4 4 7 -4 12 -12 12 -18 0 -6 8 -17 18
-25 10 -9 11 -12 2 -7 -12 6 -13 5 -2 -7 11 -12 14 -12 22 1 7 10 10 11 10 3
0 -7 -1 -14 -2 -15 -1 -2 4 -13 11 -25 9 -18 9 -23 0 -23 -29 0 9 -16 45 -19
5 -1 3 -7 -3 -15 -9 -11 -9 -16 0 -22 7 -4 9 -3 6 3 -4 6 0 14 8 17 17 6 31
-17 20 -34 -3 -5 -1 -10 4 -10 6 0 11 5 11 12 0 6 3 8 6 5 4 -4 1 -13 -6 -22
-15 -18 0 -20 19 -2 11 10 11 8 2 -10 -10 -19 -9 -23 4 -23 9 0 13 5 10 10 -3
6 -1 10 5 10 7 0 9 -8 5 -19 -4 -14 0 -23 13 -30 11 -6 22 -8 26 -6 3 3 2 -1
-4 -7 -16 -19 -12 -27 10 -21 20 5 25 -4 20 -37 -1 -8 1 -12 6 -8 4 4 13 0 21
-10 12 -16 13 -15 7 3 -7 20 -7 20 9 0 8 -11 13 -28 12 -37 -3 -12 0 -16 8
-11 26 16 37 12 26 -9 -8 -15 -8 -19 0 -14 6 4 11 2 11 -4 0 -6 4 -8 10 -5 5
3 10 1 10 -5 0 -6 5 -8 13 -4 9 6 9 5 0 -7 -10 -12 -5 -19 22 -38 19 -13 33
-26 31 -30 -3 -4 7 -7 21 -6 15 0 28 -7 30 -15 4 -13 3 -13 -6 0 -8 12 -10 11
-9 -5 2 -16 9 -20 35 -19 19 1 38 -5 45 -14 8 -9 8 -13 2 -9 -7 4 -14 1 -17
-7 -4 -10 1 -13 18 -11 15 1 22 -2 18 -8 -4 -6 0 -8 11 -4 10 4 15 3 11 -3 -4
-6 0 -17 9 -25 9 -10 16 -11 18 -4 2 7 10 4 18 -7 8 -10 10 -15 4 -11 -6 3
-11 0 -11 -8 0 -8 4 -12 8 -9 4 2 11 0 14 -6 5 -8 11 -7 21 1 15 12 17 7 14
-30 -1 -15 2 -21 9 -16 6 3 9 10 7 14 -3 4 0 13 6 21 8 12 9 12 4 -2 -3 -11 2
-19 15 -23 10 -4 19 -11 19 -17 0 -7 -5 -6 -14 1 -11 9 -16 9 -22 0 -4 -7 -3
-9 4 -5 6 3 14 2 17 -4 5 -8 11 -7 22 1 12 11 14 10 11 -5 -2 -12 4 -20 15
-21 9 -2 15 0 12 4 -2 4 2 8 9 8 8 0 11 -8 8 -19 -2 -10 1 -18 7 -18 7 0 10 4
6 9 -3 5 0 13 7 17 7 4 10 4 6 0 -10 -12 34 -51 54 -48 12 2 15 -2 11 -18 -5
-20 4 -25 36 -21 8 2 10 -2 5 -10 -5 -8 -3 -9 7 -3 22 13 40 14 32 1 -21 -33
16 -49 38 -17 8 11 9 9 3 -10 -6 -22 -5 -23 10 -11 13 11 16 11 16 0 0 -11 2
-11 10 1 8 12 10 10 10 -8 0 -13 4 -20 10 -17 6 4 8 11 5 16 -3 5 1 6 9 3 9
-3 16 -10 16 -16 0 -5 -4 -7 -8 -4 -5 3 -9 -1 -9 -8 0 -7 10 -11 21 -10 12 1
27 3 34 3 8 1 10 6 6 14 -4 6 -3 8 1 4 11 -10 16 -39 6 -32 -4 2 -8 -2 -8 -10
0 -8 4 -12 9 -9 4 3 23 1 42 -4 24 -7 38 -6 47 2 9 8 11 7 6 -7 -5 -13 -3 -16
5 -10 22 13 46 10 41 -4 -4 -10 -9 -11 -19 -2 -18 15 -18 2 0 -16 10 -10 16
-11 25 -2 8 8 11 8 11 -2 0 -11 3 -11 17 0 20 17 16 17 36 0 9 -7 14 -18 10
-25 -4 -6 1 -5 10 3 20 16 23 2 5 -19 -11 -12 -10 -12 5 -1 12 10 17 10 17 2
0 -7 4 -9 10 -6 5 3 19 1 30 -5 12 -7 20 -7 20 -1 0 5 10 8 23 5 12 -3 33 -6
47 -7 19 -2 25 -7 24 -25 -1 -17 1 -20 12 -11 7 6 17 8 23 5 5 -3 12 0 14 6 3
8 6 6 6 -4 1 -14 5 -16 26 -8 15 6 27 6 30 0 3 -5 13 -6 22 -3 9 4 14 2 10 -3
-3 -6 3 -15 14 -22 11 -7 19 -8 19 -2 0 5 -4 10 -10 10 -5 0 -10 5 -10 11 0 5
5 7 10 4 6 -3 10 0 10 7 1 7 6 2 13 -12 7 -14 21 -26 32 -27 11 -1 14 0 7 3
-6 3 -10 10 -7 15 4 5 -1 6 -9 3 -9 -3 -16 -2 -16 3 0 5 15 9 34 9 30 0 33 -3
25 -18 -8 -15 -6 -18 11 -18 14 0 19 -4 14 -12 -6 -9 -3 -9 9 0 14 12 16 11
12 -7 -2 -12 1 -21 8 -21 7 0 6 -4 -3 -10 -10 -6 -11 -10 -2 -10 6 0 12 -10
12 -22 0 -19 2 -20 10 -8 8 13 10 13 10 -2 0 -9 6 -19 13 -21 10 -4 10 -6 0
-6 -7 -1 -13 -6 -13 -12 0 -6 6 -9 13 -6 6 2 21 0 32 -5 18 -8 18 -8 -2 -4
-13 2 -23 0 -23 -5 0 -5 5 -9 11 -9 5 0 7 -4 4 -10 -3 -6 1 -7 9 -4 11 4 16 0
16 -11 0 -10 4 -13 12 -9 8 5 7 0 -2 -11 -12 -15 -12 -17 -1 -10 11 6 13 4 7
-10 -5 -14 -4 -16 8 -6 11 9 15 8 20 -5 3 -9 3 -21 -1 -27 -3 -7 -3 -9 2 -5 9
8 35 -15 35 -32 0 -6 6 -8 13 -4 9 6 9 4 0 -7 -7 -7 -13 -18 -13 -24 0 -5 5
-3 10 5 8 13 10 13 10 -1 0 -9 10 -19 22 -23 18 -4 20 -8 10 -18 -17 -17 -15
-33 3 -18 11 9 15 9 15 1 0 -7 5 -9 11 -5 8 4 9 -1 4 -16 -5 -16 -4 -20 5 -15
9 5 10 2 6 -13 -5 -16 -1 -24 16 -32 21 -10 22 -10 4 4 -18 14 -14 42 5 30 5
-3 7 -9 4 -14 -3 -5 -1 -12 5 -15 6 -4 8 -16 5 -28 -6 -22 -6 -22 11 -2 13 16
15 17 11 3 -3 -10 -2 -20 4 -24 6 -3 8 -12 5 -19 -2 -7 2 -21 10 -32 14 -17
14 -16 4 5 -10 21 -10 22 9 10 11 -6 17 -16 15 -20 -3 -4 0 -8 7 -8 9 0 9 -3
0 -14 -8 -10 -9 -16 -1 -21 6 -3 7 -11 4 -17 -4 -6 -2 -8 4 -5 15 10 38 -1 40
-18 1 -8 3 -22 4 -30 1 -11 5 -12 15 -4 10 9 14 5 19 -20 6 -29 24 -44 24 -19
0 6 3 8 7 4 5 -4 0 -13 -10 -21 -17 -12 -17 -13 0 -20 10 -5 20 -9 23 -9 3 -1
11 -5 17 -9 9 -6 11 -3 8 10 -3 10 0 8 6 -4 7 -13 20 -23 31 -23 10 0 18 -5
18 -11 0 -5 5 -7 11 -4 6 5 4 11 -7 19 -15 11 -15 13 0 13 9 0 16 -4 16 -8 0
-11 26 -5 43 9 10 9 17 10 22 2 3 -6 11 -7 17 -4 6 4 8 -1 3 -16 -6 -20 -5
-21 8 -9 8 8 12 21 10 29 -3 10 1 9 11 -4 8 -10 13 -23 9 -29 -3 -6 -1 -7 6
-3 7 4 9 16 5 28 -5 17 -3 18 15 9 17 -10 21 -9 21 4 0 9 4 14 10 10 5 -3 7
-13 4 -23 -5 -15 -4 -15 8 -2 7 9 23 15 36 14 12 -1 22 3 22 8 0 5 5 6 12 2 8
-5 9 -2 5 10 -4 10 -3 15 3 11 6 -3 10 -13 10 -21 0 -8 5 -12 11 -9 6 4 8 13
5 21 -3 9 0 11 11 7 9 -4 14 -2 10 3 -3 6 6 9 21 9 15 -1 35 3 45 7 11 6 17 5
17 -4 0 -7 9 1 21 17 11 17 19 23 18 15 -3 -30 1 -39 17 -33 11 4 12 8 4 13
-8 5 -7 9 4 13 9 4 15 3 15 -1 -1 -4 -1 -14 0 -22 1 -13 2 -13 11 0 7 11 10 7
10 -19 0 -25 4 -32 15 -27 9 3 19 -3 25 -17 10 -20 10 -20 -3 -4 -13 16 -15
16 -21 2 -3 -9 -2 -13 4 -10 6 3 13 -1 16 -9 3 -9 10 -13 15 -10 13 8 11 -10
-3 -25 -11 -11 -9 -11 12 -1 23 12 24 12 11 -4 -12 -14 -12 -16 4 -10 13 5 16
4 11 -4 -4 -7 -2 -12 3 -12 6 0 10 -6 8 -13 -1 -6 4 -11 11 -10 12 3 16 -9 13
-36 -2 -8 2 -10 10 -5 9 5 11 1 7 -14 -6 -21 1 -26 29 -23 7 1 10 -7 8 -17 -2
-10 1 -25 6 -33 6 -10 9 -10 9 -1 0 6 7 12 15 12 8 0 15 -5 15 -11 0 -8 6 -7
17 2 13 11 17 11 20 2 3 -9 10 -10 24 -3 14 8 19 7 19 -2 0 -10 2 -10 9 1 6 9
11 10 15 2 4 -6 13 -8 19 -4 16 10 57 13 57 4 0 -9 37 -8 46 1 3 4 17 4 31 2
18 -3 23 -1 17 8 -5 10 -4 11 7 1 19 -19 28 -16 24 7 -2 12 0 18 6 15 5 -4 7
-10 5 -14 -3 -4 -1 -13 5 -21 7 -12 9 -11 10 5 1 11 0 24 -1 30 -1 5 2 6 7 2
8 -8 9 -13 12 -39 0 -7 8 -2 17 10 16 23 17 23 37 5 11 -10 17 -13 14 -6 -4 6
2 18 13 26 11 7 19 16 17 18 -1 2 4 -2 11 -11 11 -13 13 -12 19 8 5 21 6 21
19 5 13 -16 14 -16 12 -1 -2 9 1 17 6 16 5 0 13 6 18 14 8 10 9 10 5 -2 -2 -8
-10 -14 -17 -12 -11 3 -11 0 0 -12 13 -17 21 -20 18 -8 0 4 2 15 7 25 6 15 10
16 16 5 6 -8 9 -9 9 -1 0 7 15 10 42 8 23 -2 38 -1 32 3 -24 17 13 60 39 45 4
-3 15 1 24 9 15 11 16 11 9 -6 -5 -15 0 -13 19 8 14 15 25 32 25 37 0 6 5 7
12 3 7 -5 9 -2 6 7 -4 10 1 15 15 17 12 0 23 6 25 12 2 5 8 10 14 10 6 0 7 -8
4 -17 -6 -14 -2 -12 17 5 13 12 27 19 31 15 4 -4 4 1 0 11 -6 15 -4 17 6 11
10 -6 12 -4 6 10 -5 14 -4 15 7 7 8 -7 18 -7 27 -2 10 7 11 10 3 10 -7 0 -13
5 -13 11 0 6 6 9 14 6 17 -7 38 15 34 34 -2 9 4 13 16 11 12 -2 15 1 11 8 -5
9 0 8 16 -1 22 -11 23 -11 10 4 -9 12 -10 17 -2 17 7 0 9 5 6 10 -3 6 1 10 10
10 10 0 13 -5 9 -12 -4 -7 -3 -8 5 -4 9 6 9 11 1 21 -9 11 -6 12 12 8 23 -5
23 -5 3 11 -11 10 -14 14 -7 11 8 -4 20 1 28 11 9 11 13 14 10 8 -3 -6 1 -11
9 -11 10 0 11 5 4 19 -7 14 -6 18 5 18 8 0 16 -3 19 -7 2 -5 2 -2 1 5 -2 6 3
12 11 12 8 0 12 8 10 20 -3 18 -1 19 18 9 12 -7 19 -8 15 -4 -4 5 -2 15 5 23
10 13 9 14 -3 7 -8 -4 -6 1 5 12 11 11 22 16 23 12 2 -5 8 -9 13 -9 6 0 5 9
-2 21 -9 17 -8 20 2 14 8 -6 11 -4 7 7 -5 11 0 15 15 14 19 -1 22 4 21 32 -2
31 -1 32 13 15 14 -17 14 -17 9 5 -2 13 -2 21 1 18 3 -3 15 0 27 6 11 7 25 11
30 10 5 -2 3 5 -5 14 -13 16 -12 17 5 11 17 -7 17 -6 5 10 -8 9 -9 14 -2 10 6
-4 14 -3 18 3 3 5 1 10 -5 10 -6 0 -8 5 -5 10 5 8 12 7 23 -2 12 -10 14 -10 8
-1 -4 8 -2 13 4 13 6 0 8 5 5 10 -9 14 14 41 29 34 6 -3 2 2 -9 11 -20 17 -20
17 5 10 22 -7 23 -6 11 9 -12 14 -12 16 1 11 12 -5 14 -1 11 17 -3 16 3 27 19
37 22 13 23 13 6 -6 -22 -24 -22 -30 -3 -30 8 0 12 4 9 9 -3 5 0 15 6 23 7 8
9 15 5 15 -4 0 -2 7 5 15 11 13 10 15 -6 9 -18 -5 -18 -5 -1 6 9 6 14 17 11
23 -4 7 -4 9 1 5 4 -4 15 -2 24 5 14 10 14 10 5 -3 -13 -17 -15 -52 -2 -44 5
3 6 10 3 15 -4 5 -3 15 1 21 5 7 8 23 8 37 1 15 8 25 19 27 25 3 35 14 14 14
-9 0 -17 5 -17 10 0 6 6 10 14 10 8 0 18 5 22 12 4 6 3 8 -3 5 -6 -4 -13 1
-15 11 -4 15 -1 18 18 14 22 -4 24 -1 20 27 -4 34 2 38 24 18 12 -10 12 -9 0
7 -17 22 -22 46 -9 46 5 0 9 -4 9 -10 0 -5 4 -10 9 -10 5 0 8 11 6 25 -1 14 1
25 5 25 5 0 6 10 2 22 -3 13 -1 19 5 15 6 -4 14 0 17 9 3 8 9 13 14 10 4 -2 8
4 8 14 0 10 -3 17 -7 15 -3 -3 -6 8 -5 24 1 18 5 27 14 24 6 -3 12 -1 12 5 0
6 -6 12 -12 15 -7 2 -10 8 -6 12 4 4 15 2 25 -6 12 -10 11 -5 -5 17 -22 32
-21 47 4 37 8 -3 11 -10 7 -16 -3 -5 -1 -7 5 -4 5 4 9 15 7 25 -1 9 3 23 9 31
8 11 8 13 0 8 -7 -4 -15 0 -18 9 -9 24 -7 31 4 14 8 -13 10 -13 10 2 0 9 6 19
13 21 7 3 4 6 -6 6 -10 1 -15 6 -12 12 4 6 14 8 22 5 8 -3 11 -1 8 5 -4 5 -1
18 6 27 10 12 7 11 -10 -3 -14 -11 -21 -15 -18 -8 4 6 1 14 -5 16 -8 3 -6 6 5
6 9 1 17 8 17 16 0 8 6 13 13 11 6 -1 9 -1 5 1 -5 3 -8 18 -8 34 0 17 4 28 10
24 6 -4 7 1 3 11 -4 11 -8 13 -11 6 -2 -7 -8 -10 -13 -7 -5 4 -7 0 -6 -7 2 -7
2 -10 0 -5 -3 4 -10 4 -16 0 -7 -3 -4 3 6 14 16 19 16 22 2 36 -8 9 -25 14
-36 12 -17 -4 -19 -2 -9 10 14 17 24 20 15 5 -4 -6 1 -7 11 -3 11 4 13 8 6 11
-7 2 -10 8 -7 13 4 5 0 6 -8 3 -22 -8 -67 14 -67 34 0 14 -7 18 -30 16 -16 -1
-28 2 -25 7 3 4 13 6 23 3 12 -4 11 -2 -3 7 -11 7 -23 17 -27 23 -5 7 -8 6 -8
-4 0 -13 -1 -13 -10 0 -5 8 -10 11 -10 6 0 -5 -9 3 -21 18 -11 14 -28 25 -37
24 -11 -2 -17 4 -17 16 0 11 -6 21 -14 24 -10 3 -11 0 -5 -9 7 -12 5 -12 -9 0
-9 7 -14 18 -10 25 4 6 0 5 -9 -2 -14 -11 -16 -10 -11 7 4 17 1 21 -21 21 -29
0 -33 9 -14 30 11 12 10 12 -3 2 -9 -6 -19 -9 -23 -5 -4 4 -4 -1 -1 -12 6 -16
5 -17 -3 -5 -8 10 -8 18 0 27 6 8 8 16 4 20 -3 3 -6 1 -6 -6 0 -7 -5 -9 -10
-6 -6 4 -18 1 -26 -6 -12 -10 -13 -9 -8 5 3 9 1 16 -6 16 -6 0 -9 4 -6 9 3 5
-1 12 -10 15 -8 3 -12 2 -9 -4 3 -6 -1 -7 -10 -4 -10 4 -13 13 -10 25 5 14 1
19 -12 19 -15 0 -16 -2 -3 -10 13 -8 12 -10 -2 -10 -12 0 -18 8 -18 21 0 14
-4 18 -12 12 -17 -10 -38 -13 -36 -5 1 4 -2 18 -6 31 -6 18 -10 20 -17 10 -7
-11 -11 -10 -24 6 -9 11 -13 13 -10 5 4 -8 -4 -2 -19 14 -28 32 -34 44 -13 30
7 -5 5 -2 -5 8 -23 21 -23 29 0 22 9 -3 5 2 -10 11 -31 18 -39 31 -9 15 24
-12 34 -13 26 -1 -3 5 -1 12 5 16 16 10 0 27 -19 21 -14 -5 -14 -4 1 7 12 10
14 17 7 24 -8 8 -7 13 2 18 8 6 10 4 4 -5 -5 -9 -4 -11 4 -6 9 6 9 11 0 22 -9
11 -9 17 1 29 7 8 8 15 3 15 -5 0 -10 7 -10 15 0 18 13 20 20 3 4 -10 6 -10 6
0 1 7 -6 15 -14 18 -14 6 -13 8 1 19 14 9 14 14 4 20 -9 6 -11 4 -5 -5 5 -8 4
-11 -3 -7 -13 9 -10 30 8 52 7 9 9 15 4 14 -23 -4 -26 2 -8 17 10 8 13 13 7 9
-7 -3 -14 -1 -14 4 -5 41 -4 58 4 74 5 11 5 23 0 30 -12 15 -10 67 2 87 7 12
6 13 -6 4 -8 -6 -22 -11 -31 -11 -14 0 -15 3 -7 14 6 7 8 13 3 13 -11 0 -12
70 -2 86 8 12 -15 38 -24 29 -3 -3 -11 2 -19 12 -9 11 -10 14 -1 9 6 -4 12 -3
12 3 0 5 -5 11 -11 13 -9 3 -9 9 0 26 10 19 9 21 -5 15 -12 -4 -15 -3 -10 5 4
7 9 21 11 33 4 17 2 19 -10 9 -10 -8 -15 -9 -15 -2 0 6 5 14 10 17 6 3 10 13
10 21 0 8 -5 12 -10 9 -6 -4 -8 -11 -5 -16 3 -5 -1 -6 -9 -3 -14 5 -14 8 -1
21 19 18 20 29 1 14 -9 -7 -17 -8 -20 -3 -3 6 1 13 9 16 14 5 14 9 2 28 -8 13
-14 33 -12 46 1 13 -4 22 -13 22 -9 0 -12 -6 -8 -16 3 -8 2 -12 -4 -9 -10 6
-7 46 5 65 3 6 -1 13 -10 16 -13 6 -14 8 -3 15 10 7 10 9 1 9 -9 0 -12 13 -10
39 2 24 -1 39 -7 38 -6 -1 -10 4 -8 11 1 8 -2 11 -8 7 -6 -3 -7 -12 -3 -18 11
-17 12 -57 1 -51 -4 3 -6 9 -3 14 3 5 2 11 -3 14 -5 3 -7 26 -6 51 2 27 -1 43
-7 40 -12 -8 -12 1 1 25 7 13 5 21 -7 31 -9 8 -14 9 -10 3 3 -6 0 -20 -9 -30
-15 -18 -15 -18 -5 2 7 15 6 27 -5 42 -16 24 -6 30 16 10 12 -11 12 -10 2 3
-6 9 -8 20 -4 24 4 5 1 5 -6 0 -10 -5 -13 0 -12 21 1 16 1 32 0 37 -1 4 -3 12
-4 17 0 6 -4 10 -8 10 -5 0 -11 0 -15 0 -3 0 2 -10 13 -21 19 -22 19 -22 -4
-8 -13 8 -20 20 -17 28 3 8 0 18 -7 23 -9 5 -10 10 -2 16 7 5 6 19 -2 47 -7
22 -13 32 -13 22 -1 -10 -6 -15 -11 -12 -6 4 -8 11 -5 16 4 5 1 9 -4 9 -6 0
-11 12 -11 27 0 14 -3 24 -6 20 -3 -3 -12 0 -19 6 -9 9 -10 16 -2 25 8 10 7
12 -4 10 -9 -2 -13 4 -11 17 2 15 1 17 -6 6 -13 -18 -32 -5 -32 20 0 16 -4 19
-21 14 -15 -5 -19 -4 -15 4 4 6 0 11 -11 12 -10 0 -13 3 -5 6 6 2 12 12 12 21
0 10 -3 13 -8 7 -9 -13 -35 -18 -27 -5 3 5 1 10 -5 10 -7 0 -10 7 -6 15 3 8 1
15 -4 15 -6 0 -10 -5 -10 -11 0 -5 -5 -7 -10 -4 -6 4 -7 11 -4 17 5 7 1 9 -9
5 -10 -3 -17 -2 -17 2 0 5 6 12 13 14 7 3 4 6 -6 6 -23 1 -50 28 -42 41 4 6 1
9 -7 8 -7 -2 -12 3 -10 10 1 8 -2 11 -8 7 -6 -4 -7 -12 -3 -19 4 -7 0 -3 -11
9 -10 11 -20 19 -22 17 -3 -2 -10 -1 -17 2 -6 3 -4 4 5 3 9 -1 17 2 17 8 1 5
-7 10 -17 10 -11 0 -17 7 -16 23 1 18 -1 20 -12 11 -17 -14 -18 -23 -2 -13 7
4 8 3 4 -4 -10 -16 -14 -15 -27 9 -9 17 -8 20 2 14 8 -6 10 -4 5 4 -5 7 -14
10 -22 7 -9 -4 -18 4 -24 20 -6 14 -16 24 -24 22 -8 -2 -15 0 -15 5 -3 28 0
37 11 31 7 -4 8 -3 4 5 -6 9 -11 9 -22 0 -10 -8 -14 -8 -14 0 0 6 -5 11 -11
11 -5 0 -7 -5 -3 -12 4 -6 3 -8 -4 -5 -5 4 -8 16 -5 27 6 24 -24 40 -39 19 -7
-10 -8 -8 -3 9 4 13 2 22 -4 22 -6 0 -11 7 -11 16 0 8 -5 12 -10 9 -6 -4 -7
-11 -4 -17 4 -7 2 -8 -4 -4 -9 5 -9 13 -2 26 9 16 8 18 -6 13 -14 -5 -16 -1
-12 23 3 23 0 30 -13 30 -13 0 -15 -4 -8 -12 7 -8 6 -14 -1 -19 -5 -3 -10 -5
-11 -3 0 2 -2 12 -4 22 -2 10 -10 23 -17 27 -10 6 -8 9 6 9 11 0 16 3 12 8 -7
7 -11 8 -37 11 -5 0 -7 6 -4 11 3 6 -1 10 -9 10 -9 0 -15 6 -14 13 2 6 -2 11
-9 10 -6 -1 -14 4 -17 12 -3 10 0 12 12 8 15 -6 15 -5 3 11 -8 9 -20 15 -28
12 -8 -3 -11 -1 -8 4 3 6 1 10 -6 10 -8 0 -7 5 2 17 8 9 10 14 4 11 -5 -3 -15
0 -22 7 -9 9 -9 15 -2 17 7 2 3 10 -7 18 -16 13 -17 13 -9 0 7 -13 6 -13 -7
-2 -9 7 -15 23 -14 36 2 13 -3 32 -11 42 -12 16 -14 16 -11 2 2 -9 -1 -17 -7
-17 -5 -1 -9 10 -9 24 1 22 -1 23 -14 13 -13 -11 -14 -11 -8 0 8 14 -11 45
-23 37 -4 -2 -8 2 -8 10 0 8 5 11 10 8 5 -3 8 0 6 6 -3 7 -9 13 -14 13 -16 0
-35 19 -29 29 3 5 -2 9 -10 9 -9 0 -16 5 -16 11 0 5 4 8 9 5 5 -4 6 4 3 16 -6
21 -7 21 -10 4 -3 -13 -6 -15 -12 -6 -11 17 -177 18 -193 0 -10 -10 -8 -12 7
-6 15 5 17 4 7 -7 -12 -15 -48 -17 -68 -4 -8 5 -13 4 -13 -2 0 -6 5 -11 10
-11 6 0 10 -5 10 -11 0 -6 -9 -8 -22 -4 -18 5 -20 4 -8 -4 13 -9 13 -12 1 -23
-10 -10 -12 -10 -7 0 10 17 -10 15 -28 -4 -9 -9 -14 -26 -12 -39 3 -17 1 -22
-10 -18 -8 3 -11 10 -7 17 4 6 -1 5 -10 -3 -14 -11 -15 -16 -5 -29 7 -9 8 -13
3 -10 -6 4 -17 3 -25 -3 -9 -5 -10 -9 -4 -9 7 0 15 -7 18 -16 4 -12 2 -15 -9
-10 -8 3 -15 1 -15 -3 0 -5 6 -11 13 -14 9 -3 9 -7 0 -19 -9 -11 -10 -17 -1
-26 8 -8 4 -10 -16 -6 -25 4 -26 3 -16 -16 6 -11 7 -20 2 -20 -5 0 -8 -18 -6
-40 1 -22 -2 -38 -7 -34 -16 10 -10 -8 9 -23 9 -8 11 -12 5 -8 -7 3 -13 2 -13
-3 0 -6 -9 -8 -20 -5 -17 5 -18 8 -8 22 7 9 8 12 3 8 -5 -4 -15 3 -23 15 -7
13 -11 15 -8 6 2 -9 -1 -19 -8 -21 -10 -4 -12 1 -9 14 3 10 0 19 -6 19 -6 0
-8 7 -4 17 5 12 3 14 -8 9 -8 -4 -6 -1 3 7 10 8 15 17 11 20 -3 4 -12 2 -18
-3 -10 -8 -16 -2 -24 21 -6 17 -8 35 -5 40 3 5 -2 9 -10 9 -9 0 -16 -5 -16
-11 0 -5 -5 -7 -10 -4 -6 4 -4 12 5 22 15 14 14 17 -5 35 -11 10 -18 23 -15
28 3 4 -5 6 -17 3 -19 -4 -20 -3 -8 6 10 7 11 11 3 11 -7 0 -10 7 -7 15 4 9 0
15 -10 15 -9 0 -16 4 -16 10 0 5 5 9 11 7 6 -1 14 5 16 13 4 12 3 12 -5 1 -7
-9 -12 -10 -16 -2 -4 6 -12 9 -17 6 -5 -4 -10 -1 -10 4 -1 6 -2 16 -3 23 -2
18 -131 27 -177 13 -16 -5 -19 -4 -14 5 5 9 4 11 -4 6 -6 -4 -9 -12 -6 -17 8
-13 -9 -11 -22 2 -8 8 -13 7 -18 -2 -5 -7 -4 -10 2 -6 6 4 16 0 23 -8 11 -13
10 -14 -4 -9 -10 4 -16 1 -16 -7 0 -11 -3 -11 -10 1 -8 13 -10 12 -10 -4 0
-14 -3 -16 -13 -8 -9 8 -17 8 -27 0 -13 -9 -13 -9 0 -5 8 2 22 -3 30 -11 13
-14 12 -15 -3 -9 -18 7 -51 -19 -42 -34 4 -5 1 -9 -5 -9 -6 0 -10 7 -8 16 2
10 -5 18 -15 19 -9 2 -15 -1 -11 -6 3 -5 0 -9 -6 -9 -6 0 -8 -5 -4 -12 4 -7 3
-8 -4 -4 -6 4 -9 13 -6 20 3 7 -2 16 -10 19 -9 4 -13 13 -10 22 3 8 1 15 -6
15 -17 0 -40 26 -40 45 0 9 -4 13 -10 10 -18 -11 -32 6 -18 23 10 12 10 14 1
8 -8 -4 -13 -2 -13 5 0 8 -5 7 -17 -2 -11 -10 -14 -10 -9 -1 4 7 2 12 -5 12
-8 0 -8 4 1 15 7 8 10 16 6 16 -3 1 -10 3 -16 4 -5 1 -17 3 -26 4 -8 0 -13 5
-9 11 3 5 13 6 23 3 9 -3 15 -4 12 -2 -39 33 -52 42 -47 32 5 -8 0 -11 -13
-10 -13 1 -16 5 -10 11 13 13 13 29 0 21 -9 -5 -14 6 -12 26 1 3 -6 6 -13 6
-10 0 -12 -4 -5 -12 7 -8 5 -12 -4 -12 -15 0 -16 14 -3 34 6 9 0 12 -23 9 -24
-3 -28 -1 -20 9 7 9 8 14 1 17 -6 1 -12 15 -13 29 -2 25 -21 35 -25 14 0 -6 3
-9 8 -8 5 2 9 -1 9 -6 0 -6 -8 -9 -18 -8 -15 1 -19 8 -17 32 1 19 -4 32 -11
32 -7 0 -10 -7 -8 -16 3 -9 -3 -1 -12 17 -10 17 -22 32 -26 32 -5 0 -7 -4 -4
-8 3 -5 -2 -9 -10 -9 -10 0 -11 4 -4 11 12 12 13 29 1 22 -5 -3 -11 3 -14 15
-3 12 -12 19 -23 17 -12 -2 -18 4 -19 20 -1 13 -8 27 -15 32 -10 6 -9 9 1 13
9 3 10 6 2 6 -6 1 -15 -3 -18 -9 -9 -15 -22 -12 -29 6 -6 15 -4 15 11 3 16
-12 17 -12 6 1 -6 8 -11 18 -10 22 1 3 -2 10 -7 15 -5 5 -6 3 -2 -4 4 -8 1
-13 -8 -13 -9 0 -16 7 -16 16 0 8 -4 12 -10 9 -5 -3 -10 -1 -10 6 0 8 -5 8
-17 -2 -13 -10 -13 -8 2 10 l20 23 -20 -2 c-39 -4 -46 -1 -36 18 10 18 6 20
-46 24 -7 1 -11 6 -10 12 1 6 -4 10 -11 8 -8 -1 -11 2 -7 8 8 13 11 13 29 -5
13 -14 15 -13 13 3 -1 12 -8 18 -21 17 -12 -1 -27 3 -35 9 -11 8 -13 8 -8 -1
4 -6 2 -10 -5 -9 -24 3 -37 16 -33 34 2 12 -3 18 -16 18 -10 0 -19 -4 -19 -8
0 -4 -9 -6 -19 -5 -11 0 -19 4 -19 7 0 3 0 13 -1 24 -1 18 -2 18 -28 1 -16
-10 -22 -12 -15 -4 18 19 15 34 -5 18 -13 -11 -17 -11 -20 -1 -3 6 -10 9 -16
5 -16 -10 -107 -9 -107 1 0 5 -6 4 -13 -3 -9 -7 -17 -7 -23 -1 -6 6 -14 7 -18
3z m-756 -247 c0 -2 -7 -7 -16 -10 -8 -3 -12 -2 -9 4 6 10 25 14 25 6z m1355
-54 c-3 -3 -11 0 -18 7 -9 10 -8 11 6 5 10 -3 15 -9 12 -12z m-1824 -125 c-10
-9 -11 -8 -5 6 3 10 9 15 12 12 3 -3 0 -11 -7 -18z m144 3 c3 -5 2 -10 -4 -10
-5 0 -13 5 -16 10 -3 6 -2 10 4 10 5 0 13 -4 16 -10z m-257 -45 c-3 -3 -9 2
-12 12 -6 14 -5 15 5 6 7 -7 10 -15 7 -18z m2789 -292 c0 -8 -6 -9 -19 -2 -10
5 -18 11 -18 12 0 2 8 3 18 3 10 0 19 -6 19 -13z m26 -38 c-3 -9 -8 -14 -10
-11 -3 3 -2 9 2 15 9 16 15 13 8 -4z m-3073 -275 c0 -5 -5 -10 -11 -10 -5 0
-7 5 -4 10 3 6 8 10 11 10 2 0 4 -4 4 -10z m200 -30 c8 -15 8 -18 -3 -14 -8 3
-14 11 -14 19 0 20 4 19 17 -5z m57 -42 c-3 -8 -6 -5 -6 6 -1 11 2 17 5 13 3
-3 4 -12 1 -19z m-231 -580 c4 -7 3 -8 -4 -4 -7 4 -12 2 -12 -5 0 -7 -3 -10
-6 -6 -6 5 3 27 11 27 2 0 7 -5 11 -12z m4694 -138 c0 -5 -2 -10 -4 -10 -3 0
-8 5 -11 10 -3 6 -1 10 4 10 6 0 11 -4 11 -10z m-4835 -120 c3 -6 -1 -7 -9 -4
-18 7 -21 14 -7 14 6 0 13 -4 16 -10z m4985 -324 c0 -3 -4 -8 -10 -11 -5 -3
-10 -1 -10 4 0 6 5 11 10 11 6 0 10 -2 10 -4z m-4896 -304 c3 -5 -1 -9 -9 -9
-8 0 -12 4 -9 9 3 4 7 8 9 8 2 0 6 -4 9 -8z m46 -57 c0 -8 -4 -15 -10 -15 -5
0 -7 7 -4 15 4 8 8 15 10 15 2 0 4 -7 4 -15z m4965 5 c3 -5 1 -10 -4 -10 -6 0
-11 5 -11 10 0 6 2 10 4 10 3 0 8 -4 11 -10z m-4790 -180 c3 -6 -1 -7 -9 -4
-18 7 -21 14 -7 14 6 0 13 -4 16 -10z m285 -300 c0 -5 -5 -10 -11 -10 -5 0 -7
5 -4 10 3 6 8 10 11 10 2 0 4 -4 4 -10z m4545 -110 c-3 -5 -12 -10 -18 -10 -7
0 -6 4 3 10 19 12 23 12 15 0z m-4231 -219 c3 -5 -1 -14 -8 -20 -12 -10 -14
-9 -11 6 2 10 4 19 4 21 2 5 10 2 15 -7z m336 -376 c7 -8 9 -15 6 -15 -4 0
-14 7 -22 15 -9 8 -11 15 -6 15 5 0 15 -7 22 -15z m4560 -52 c-1 -18 -18 -35
-24 -24 -4 6 -2 11 4 11 6 0 8 5 5 10 -3 6 -1 10 4 10 6 0 11 -3 11 -7z m-33
-190 c0 -9 -4 -10 -14 -2 -7 6 -13 12 -13 14 0 1 6 2 13 2 8 0 14 -6 14 -14z
m-4014 -134 c-8 -8 -13 -7 -18 2 -5 8 -4 10 3 5 7 -4 12 -2 12 5 0 7 3 9 7 6
4 -4 2 -12 -4 -18z m3961 -41 c-3 -4 -11 -8 -17 -8 -7 0 -6 4 3 10 11 7 11 10
2 10 -7 0 -10 5 -6 11 4 8 9 7 15 -2 4 -7 5 -17 3 -21z m-3889 -6 c-3 -3 -11
0 -18 7 -9 10 -8 11 6 5 10 -3 15 -9 12 -12z m199 -67 c-4 -8 -11 -12 -16 -9
-6 4 -5 10 3 15 19 12 19 11 13 -6z m1106 -805 c0 -5 -5 -10 -11 -10 -5 0 -7
5 -4 10 3 6 8 10 11 10 2 0 4 -4 4 -10z m1855 -108 c-3 -3 -11 0 -18 7 -9 10
-8 11 6 5 10 -3 15 -9 12 -12z m-1775 -42 c0 -5 -2 -10 -4 -10 -3 0 -8 5 -11
10 -3 6 -1 10 4 10 6 0 11 -4 11 -10z m1690 -24 c0 -3 -4 -8 -10 -11 -5 -3
-10 -1 -10 4 0 6 5 11 10 11 6 0 10 -2 10 -4z m-120 -70 c0 -2 -6 -9 -14 -15
-11 -9 -16 -9 -22 0 -4 7 -3 9 4 5 6 -3 13 -2 17 4 6 10 15 14 15 6z m-135
-56 c-3 -5 -12 -10 -18 -10 -7 0 -6 4 3 10 19 12 23 12 15 0z m-678 -62 c-3
-8 -6 -5 -6 6 -1 11 2 17 5 13 3 -3 4 -12 1 -19z m483 -20 c0 -13 -18 -18 -23
-6 -3 10 -10 8 -26 -6 -24 -22 -29 -15 -6 8 15 15 55 18 55 4z m-430 -12 c0
-2 -7 -7 -16 -10 -8 -3 -12 -2 -9 4 6 10 25 14 25 6z"/>
<path d="M3340 6241 c0 -6 4 -13 10 -16 6 -3 7 1 4 9 -7 18 -14 21 -14 7z"/>
<path d="M1416 6207 c3 -10 9 -15 12 -12 3 3 0 11 -7 18 -10 9 -11 8 -5 -6z"/>
<path d="M2465 6211 c-3 -6 -12 -9 -18 -5 -7 3 -3 -2 7 -10 23 -18 48 -4 29
15 -8 8 -13 8 -18 0z"/>
<path d="M3415 6201 c-3 -5 0 -13 6 -17 7 -4 9 -3 5 4 -3 5 0 13 6 15 9 4 10
6 1 6 -6 1 -14 -3 -18 -8z"/>
<path d="M5590 6181 c0 -6 4 -12 8 -15 5 -3 9 1 9 9 0 8 -4 15 -9 15 -4 0 -8
-4 -8 -9z"/>
<path d="M676 6158 c10 -14 21 -24 23 -22 3 3 -6 15 -18 27 l-24 22 19 -27z"/>
<path d="M3550 6099 c0 -5 5 -7 10 -4 6 3 10 8 10 11 0 2 -4 4 -10 4 -5 0 -10
-5 -10 -11z"/>
<path d="M6226 6048 c3 -5 10 -6 15 -3 13 9 11 12 -6 12 -8 0 -12 -4 -9 -9z"/>
<path d="M3705 5950 c-3 -6 1 -7 9 -4 18 7 21 14 7 14 -6 0 -13 -4 -16 -10z"/>
<path d="M2126 5822 c-2 -4 -1 -14 3 -21 6 -9 11 -10 15 -2 4 6 2 11 -4 11 -6
0 -8 5 -5 10 3 6 4 10 1 10 -3 0 -7 -4 -10 -8z"/>
<path d="M6953 5775 c1 -5 -4 -9 -12 -7 -12 3 -12 0 -2 -12 11 -13 8 -14 -16
-12 -15 2 -31 -2 -35 -8 -6 -8 -11 -7 -18 4 -7 11 -10 11 -10 2 0 -7 -5 -10
-12 -6 -7 4 -8 3 -4 -5 4 -6 12 -9 17 -6 5 4 9 1 9 -4 0 -6 -11 -11 -24 -11
-14 0 -27 -4 -30 -9 -3 -5 -15 -7 -26 -4 -14 4 -20 1 -18 -8 2 -10 -7 -14 -29
-13 -17 0 -30 -4 -27 -8 5 -8 -16 -12 -48 -10 -11 1 -16 -5 -13 -17 2 -13 -2
-18 -13 -16 -9 1 -21 -3 -25 -9 -5 -6 -5 0 -2 14 l7 25 -17 -23 c-13 -17 -20
-20 -30 -12 -10 8 -15 8 -20 0 -4 -6 -14 -9 -22 -6 -8 3 -11 1 -8 -4 3 -6 1
-10 -4 -10 -6 0 -11 -5 -11 -11 0 -8 4 -8 14 0 11 9 16 9 22 0 4 -8 3 -9 -4
-5 -7 4 -12 3 -12 -3 0 -5 -9 -9 -19 -8 -11 0 -17 6 -15 12 3 5 -2 1 -10 -9
-16 -20 -16 -20 -17 0 0 19 -1 19 -8 0 -5 -14 -10 -16 -15 -8 -4 7 -13 9 -19
5 -7 -4 -18 -8 -25 -9 -21 -4 -24 -11 -8 -17 9 -4 23 2 33 11 16 16 16 16 10
-1 -4 -10 -7 -21 -7 -23 0 -3 -4 -3 -9 1 -5 3 -12 1 -16 -4 -3 -6 -15 -7 -28
-2 -15 6 -26 4 -35 -5 -10 -11 -10 -14 0 -14 9 0 9 -3 -2 -10 -12 -8 -11 -10
8 -10 12 0 22 -5 22 -11 0 -5 5 -7 12 -3 7 4 8 3 4 -5 -6 -9 -11 -9 -21 -1 -9
8 -15 8 -20 0 -3 -5 -5 -10 -3 -11 27 -6 45 -6 58 1 12 7 23 3 39 -11 11 -11
21 -15 21 -9 0 6 5 8 10 5 6 -4 9 -9 7 -13 -2 -4 4 -15 15 -24 10 -10 18 -13
18 -7 0 6 9 9 20 6 13 -3 18 -1 13 6 -4 8 -2 8 9 0 8 -7 19 -9 23 -5 5 4 5 -2
1 -12 -6 -18 -5 -19 11 -5 25 20 83 11 83 -13 0 -5 -4 -6 -10 -3 -5 3 -10 2
-10 -3 0 -6 7 -13 16 -16 8 -3 12 -2 9 4 -3 6 -2 10 4 10 5 0 13 -5 16 -10 5
-8 11 -7 21 1 13 11 18 6 15 -16 -1 -5 6 -1 14 9 9 12 15 15 15 7 0 -9 8 -11
21 -8 12 3 19 3 16 0 -3 -2 2 -13 11 -22 12 -12 22 -15 34 -9 10 5 19 4 24 -4
5 -7 3 -8 -6 -3 -9 5 -11 4 -6 -4 6 -9 11 -9 22 0 10 8 14 8 14 0 0 -6 5 -11
11 -11 5 0 8 4 4 9 -3 5 -1 13 5 16 6 4 10 3 9 -2 -3 -20 2 -25 16 -13 12 10
14 8 10 -9 -2 -11 0 -23 6 -26 5 -4 9 -1 9 6 0 7 6 5 13 -6 10 -12 16 -14 21
-7 4 7 12 12 17 12 6 0 7 -4 4 -10 -3 -5 -1 -10 4 -10 6 0 11 8 11 18 1 15 2
15 17 -3 15 -20 15 -20 10 2 -4 17 -1 20 12 15 14 -5 14 -4 2 11 -7 9 -9 17
-4 17 7 0 8 17 4 63 -1 5 -7 5 -13 2 -7 -4 -6 0 4 7 12 11 14 18 6 32 -8 14
-7 21 3 27 12 7 12 9 0 9 -10 0 -11 3 -2 13 8 10 7 17 -1 25 -9 9 -9 12 2 12
9 0 8 5 -6 15 -19 15 -19 15 1 9 16 -6 18 -5 8 7 -16 16 -17 33 -1 23 7 -4 8
-3 4 5 -4 7 -17 9 -29 6 -16 -5 -18 -4 -8 3 8 6 12 19 8 31 -7 28 1 27 13 -1
8 -19 9 -15 6 20 -2 23 1 42 6 42 5 0 5 7 0 18 -5 9 -8 29 -7 44 1 15 -2 25
-7 22 -4 -3 -6 -9 -3 -14 3 -4 -2 -10 -10 -13 -10 -4 -12 -1 -8 10 4 10 2 14
-4 10 -6 -4 -16 0 -23 8 -8 9 -8 15 -2 15 6 0 13 -6 15 -12 4 -10 6 -10 6 0 1
8 6 10 14 6 9 -5 9 -4 -1 7 -14 16 -91 20 -89 4z m37 -18 c0 -7 -4 -6 -10 3
-8 13 -10 12 -10 -4 0 -11 -3 -17 -6 -13 -4 3 -4 13 0 22 6 18 26 11 26 -8z
m66 -75 c0 -21 -5 -39 -11 -39 -6 0 -11 8 -11 18 0 10 4 15 8 13 4 -3 8 2 8
10 0 9 -6 16 -12 16 -9 0 -8 4 2 10 8 5 15 10 16 10 0 0 1 -17 0 -38z m-9
-207 c0 -8 -4 -12 -9 -9 -5 3 -6 10 -3 15 9 13 12 11 12 -6z m-533 -37 c-3 -4
1 -8 8 -8 10 0 9 -3 -2 -9 -8 -6 -18 -7 -22 -5 -14 9 -9 31 7 31 8 0 12 -4 9
-9z"/>
<path d="M6750 5690 c0 -5 5 -10 11 -10 5 0 7 5 4 10 -3 6 -8 10 -11 10 -2 0
-4 -4 -4 -10z"/>
<path d="M6630 5639 c0 -5 5 -7 10 -4 6 3 10 8 10 11 0 2 -4 4 -10 4 -5 0 -10
-5 -10 -11z"/>
<path d="M1560 5540 c20 -13 33 -13 25 0 -3 6 -14 10 -23 10 -15 0 -15 -2 -2
-10z"/>
<path d="M5255 5521 c-3 -5 -1 -12 5 -16 5 -3 10 1 10 9 0 18 -6 21 -15 7z"/>
<path d="M5307 5455 c3 -8 9 -12 14 -9 12 7 11 11 -5 17 -10 4 -13 1 -9 -8z"/>
<path d="M6404 5448 c-4 -7 -4 -10 1 -6 4 4 15 2 24 -5 14 -11 14 -10 2 6 -16
20 -18 21 -27 5z"/>
<path d="M6619 5383 c-8 -9 -9 -14 -2 -10 6 4 13 2 15 -5 3 -8 7 -6 11 5 9 23
-8 30 -24 10z"/>
<path d="M1606 5365 c4 -8 11 -15 16 -15 6 0 5 6 -2 15 -7 8 -14 15 -16 15 -2
0 -1 -7 2 -15z"/>
<path d="M4795 5350 c-3 -6 1 -7 9 -4 18 7 21 14 7 14 -6 0 -13 -4 -16 -10z"/>
<path d="M6754 5338 c2 -7 11 -12 21 -10 10 2 14 -1 10 -7 -4 -7 0 -8 11 -4
15 5 15 7 0 15 -9 5 -20 7 -25 3 -5 -3 -12 0 -14 5 -3 6 -4 5 -3 -2z"/>
<path d="M4820 5329 c0 -5 -4 -7 -10 -4 -17 10 -11 -2 8 -16 9 -7 14 -9 10 -5
-4 5 -3 15 3 23 9 9 8 13 0 13 -6 0 -11 -5 -11 -11z"/>
<path d="M6897 5281 c-10 -14 -10 -14 5 -3 13 10 17 10 20 0 3 -8 6 -7 10 3 8
21 -19 20 -35 0z"/>
<path d="M1645 5280 c3 -5 8 -10 11 -10 2 0 4 5 4 10 0 6 -5 10 -11 10 -5 0
-7 -4 -4 -10z"/>
<path d="M5436 5262 c-3 -5 1 -9 9 -9 8 0 12 4 9 9 -3 4 -7 8 -9 8 -2 0 -6 -4
-9 -8z"/>
<path d="M1397 5183 c-11 -11 -8 -20 7 -20 8 0 12 6 9 14 -6 15 -7 15 -16 6z"/>
<path d="M1636 4287 c3 -10 9 -15 12 -12 3 3 0 11 -7 18 -10 9 -11 8 -5 -6z"/>
<path d="M1755 4181 c-3 -5 -1 -12 5 -16 5 -3 10 1 10 9 0 18 -6 21 -15 7z"/>
<path d="M6370 3929 c0 -5 5 -7 10 -4 6 3 10 8 10 11 0 2 -4 4 -10 4 -5 0 -10
-5 -10 -11z"/>
<path d="M6445 3660 c3 -5 11 -10 16 -10 6 0 7 5 4 10 -3 6 -11 10 -16 10 -6
0 -7 -4 -4 -10z"/>
<path d="M6455 3630 c-3 -6 1 -7 9 -4 18 7 21 14 7 14 -6 0 -13 -4 -16 -10z"/>
<path d="M6493 3495 c0 -8 4 -12 9 -9 4 3 8 9 8 15 0 5 -4 9 -8 9 -5 0 -9 -7
-9 -15z"/>
<path d="M1690 3380 c0 -5 5 -10 11 -10 5 0 7 5 4 10 -3 6 -8 10 -11 10 -2 0
-4 -4 -4 -10z"/>
<path d="M6535 3220 c3 -5 8 -10 11 -10 2 0 4 5 4 10 0 6 -5 10 -11 10 -5 0
-7 -4 -4 -10z"/>
<path d="M1983 3072 c1 -14 5 -18 11 -12 7 7 6 14 -1 21 -9 9 -12 7 -10 -9z"/>
<path d="M6550 2921 c0 -6 4 -13 10 -16 6 -3 7 1 4 9 -7 18 -14 21 -14 7z"/>
<path d="M2221 2811 c-8 -5 -9 -11 -3 -15 5 -3 12 1 16 9 6 17 6 18 -13 6z"/>
<path d="M6950 2626 c0 -2 6 -9 14 -15 11 -9 16 -9 22 0 4 8 3 9 -4 5 -7 -4
-12 -2 -12 3 0 6 -4 11 -10 11 -5 0 -10 -2 -10 -4z"/>
<path d="M7086 2535 c-9 -26 -7 -32 5 -12 6 10 9 21 6 23 -2 3 -7 -2 -11 -11z"/>
<path d="M2720 2310 c-9 -6 -10 -10 -3 -10 6 0 15 5 18 10 8 12 4 12 -15 0z"/>
<path d="M3026 2082 c-3 -5 1 -9 9 -9 8 0 15 4 15 9 0 4 -4 8 -9 8 -6 0 -12
-4 -15 -8z"/>
<path d="M3561 1844 c0 -11 3 -14 6 -6 3 7 2 16 -1 19 -3 4 -6 -2 -5 -13z"/>
<path d="M3695 1800 c-3 -5 -1 -10 4 -10 6 0 11 5 11 10 0 6 -2 10 -4 10 -3 0
-8 -4 -11 -10z"/>
<path d="M3716 1783 c-6 -14 -5 -15 5 -6 7 7 10 15 7 18 -3 3 -9 -2 -12 -12z"/>
<path d="M3743 1785 c0 -11 4 -12 14 -4 7 6 13 13 13 15 0 2 -6 4 -13 4 -8 0
-14 -7 -14 -15z"/>
<path d="M5015 977 c-12 -10 -15 -16 -6 -21 6 -4 14 0 17 9 5 12 9 13 20 4 12
-10 13 -9 8 5 -7 20 -15 20 -39 3z"/>
<path d="M4730 935 c-7 -9 -10 -18 -6 -22 3 -3 6 -1 6 7 0 10 3 10 14 1 11
-10 14 -9 12 3 -3 24 -12 28 -26 11z"/>
<path d="M6205 889 c-4 -6 -4 -13 -1 -16 3 -4 6 -1 6 6 0 7 5 9 12 5 7 -4 8
-3 4 4 -9 15 -13 15 -21 1z"/>
</g>
</svg>
